solid OpenSCAD_Model
  facet normal -0.672332 -0.388171 0.630311
    outer loop
      vertex -6 0 2.05
      vertex -1.125 -1.94856 6.05
      vertex -2.25 0 6.05
    endloop
  endfacet
  facet normal -0.672332 -0.388171 0.630311
    outer loop
      vertex -1.125 -1.94856 6.05
      vertex -6 0 2.05
      vertex -3 -5.19615 2.05
    endloop
  endfacet
  facet normal 0 0 -1
    outer loop
      vertex 3 -5.19615 2.05
      vertex 3 5.19615 2.05
      vertex 6 0 2.05
    endloop
  endfacet
  facet normal 0 0 -1
    outer loop
      vertex 3 -5.19615 2.05
      vertex -3 5.19615 2.05
      vertex 3 5.19615 2.05
    endloop
  endfacet
  facet normal 0 0 -1
    outer loop
      vertex -3 -5.19615 2.05
      vertex -3 5.19615 2.05
      vertex 3 -5.19615 2.05
    endloop
  endfacet
  facet normal 0 0 -1
    outer loop
      vertex -3 5.19615 2.05
      vertex -3 -5.19615 2.05
      vertex -6 0 2.05
    endloop
  endfacet
  facet normal 0 0.776342 0.630311
    outer loop
      vertex 3 5.19615 2.05
      vertex -1.125 1.94856 6.05
      vertex 1.125 1.94856 6.05
    endloop
  endfacet
  facet normal 0 0.776342 0.630311
    outer loop
      vertex -1.125 1.94856 6.05
      vertex 3 5.19615 2.05
      vertex -3 5.19615 2.05
    endloop
  endfacet
  facet normal 0.672332 0.388171 0.630311
    outer loop
      vertex 6 0 2.05
      vertex 1.125 1.94856 6.05
      vertex 2.25 0 6.05
    endloop
  endfacet
  facet normal 0.672332 0.388171 0.630311
    outer loop
      vertex 1.125 1.94856 6.05
      vertex 6 0 2.05
      vertex 3 5.19615 2.05
    endloop
  endfacet
  facet normal 0 -0.776342 0.630311
    outer loop
      vertex -3 -5.19615 2.05
      vertex 1.125 -1.94856 6.05
      vertex -1.125 -1.94856 6.05
    endloop
  endfacet
  facet normal 0 -0.776342 0.630311
    outer loop
      vertex 1.125 -1.94856 6.05
      vertex -3 -5.19615 2.05
      vertex 3 -5.19615 2.05
    endloop
  endfacet
  facet normal -0.672332 0.388171 0.630312
    outer loop
      vertex -1.125 1.94856 6.05
      vertex -3 5.19615 2.05
      vertex -2.25 0 6.05
    endloop
  endfacet
  facet normal -0.672332 0.388171 0.630311
    outer loop
      vertex -3 5.19615 2.05
      vertex -6 0 2.05
      vertex -2.25 0 6.05
    endloop
  endfacet
  facet normal 0.672332 -0.388171 0.630311
    outer loop
      vertex 1.125 -1.94856 6.05
      vertex 6 0 2.05
      vertex 2.25 0 6.05
    endloop
  endfacet
  facet normal 0.672332 -0.388171 0.630311
    outer loop
      vertex 6 0 2.05
      vertex 1.125 -1.94856 6.05
      vertex 3 -5.19615 2.05
    endloop
  endfacet
  facet normal 0.866025 0.5 0
    outer loop
      vertex 2.25 0 9.05
      vertex 1.125 1.94856 6.05
      vertex 1.125 1.94856 9.05
    endloop
  endfacet
  facet normal 0.866025 0.5 0
    outer loop
      vertex 1.125 1.94856 6.05
      vertex 2.25 0 9.05
      vertex 2.25 0 6.05
    endloop
  endfacet
  facet normal -0.866025 0.5 0
    outer loop
      vertex -2.25 0 6.05
      vertex -1.125 1.94856 9.05
      vertex -1.125 1.94856 6.05
    endloop
  endfacet
  facet normal -0.866025 0.5 0
    outer loop
      vertex -1.125 1.94856 9.05
      vertex -2.25 0 6.05
      vertex -2.25 0 9.05
    endloop
  endfacet
  facet normal 0 1 -0
    outer loop
      vertex 1.125 1.94856 6.05
      vertex -1.125 1.94856 9.05
      vertex 1.125 1.94856 9.05
    endloop
  endfacet
  facet normal 0 1 0
    outer loop
      vertex -1.125 1.94856 9.05
      vertex 1.125 1.94856 6.05
      vertex -1.125 1.94856 6.05
    endloop
  endfacet
  facet normal 0 0 1
    outer loop
      vertex 1.125 1.94856 9.05
      vertex 1.125 -1.94856 9.05
      vertex 2.25 0 9.05
    endloop
  endfacet
  facet normal -0 0 1
    outer loop
      vertex -1.125 1.94856 9.05
      vertex 1.125 -1.94856 9.05
      vertex 1.125 1.94856 9.05
    endloop
  endfacet
  facet normal 0 0 1
    outer loop
      vertex -1.125 1.94856 9.05
      vertex -1.125 -1.94856 9.05
      vertex 1.125 -1.94856 9.05
    endloop
  endfacet
  facet normal 0 -0 1
    outer loop
      vertex -1.125 -1.94856 9.05
      vertex -1.125 1.94856 9.05
      vertex -2.25 0 9.05
    endloop
  endfacet
  facet normal 0 -1 0
    outer loop
      vertex -1.125 -1.94856 6.05
      vertex 1.125 -1.94856 9.05
      vertex -1.125 -1.94856 9.05
    endloop
  endfacet
  facet normal 0 -1 -0
    outer loop
      vertex 1.125 -1.94856 9.05
      vertex -1.125 -1.94856 6.05
      vertex 1.125 -1.94856 6.05
    endloop
  endfacet
  facet normal -0.866025 -0.5 0
    outer loop
      vertex -1.125 -1.94856 6.05
      vertex -2.25 0 9.05
      vertex -2.25 0 6.05
    endloop
  endfacet
  facet normal -0.866025 -0.5 0
    outer loop
      vertex -2.25 0 9.05
      vertex -1.125 -1.94856 6.05
      vertex -1.125 -1.94856 9.05
    endloop
  endfacet
  facet normal 0.866025 -0.5 0
    outer loop
      vertex 1.125 -1.94856 9.05
      vertex 2.25 0 6.05
      vertex 2.25 0 9.05
    endloop
  endfacet
  facet normal 0.866025 -0.5 0
    outer loop
      vertex 2.25 0 6.05
      vertex 1.125 -1.94856 9.05
      vertex 1.125 -1.94856 6.05
    endloop
  endfacet
endsolid OpenSCAD_Model
