solid OpenSCAD_Model
  facet normal 0.866025 0.5 0
    outer loop
      vertex 5.55 0 4.65
      vertex 2.775 4.80644 0
      vertex 2.775 4.80644 4.65
    endloop
  endfacet
  facet normal 0.866025 0.5 0
    outer loop
      vertex 2.775 4.80644 0
      vertex 5.55 0 4.65
      vertex 5.55 0 0
    endloop
  endfacet
  facet normal -0.866025 0.5 0
    outer loop
      vertex -5.55 0 0
      vertex -2.775 4.80644 4.65
      vertex -2.775 4.80644 0
    endloop
  endfacet
  facet normal -0.866025 0.5 0
    outer loop
      vertex -2.775 4.80644 4.65
      vertex -5.55 0 0
      vertex -5.55 0 4.65
    endloop
  endfacet
  facet normal 0 1 -0
    outer loop
      vertex 2.775 4.80644 0
      vertex -2.775 4.80644 4.65
      vertex 2.775 4.80644 4.65
    endloop
  endfacet
  facet normal 0 1 0
    outer loop
      vertex -2.775 4.80644 4.65
      vertex 2.775 4.80644 0
      vertex -2.775 4.80644 0
    endloop
  endfacet
  facet normal 0 0 -1
    outer loop
      vertex 3.50629 -0.555342 4.65
      vertex 3.50629 0.555342 4.65
      vertex 3.55 0 4.65
    endloop
  endfacet
  facet normal 0 0 -1
    outer loop
      vertex 3.37625 -1.09701 4.65
      vertex 3.50629 0.555342 4.65
      vertex 3.50629 -0.555342 4.65
    endloop
  endfacet
  facet normal 0 0 -1
    outer loop
      vertex 3.37625 -1.09701 4.65
      vertex 3.37625 1.09701 4.65
      vertex 3.50629 0.555342 4.65
    endloop
  endfacet
  facet normal 0 0 -1
    outer loop
      vertex 3.16307 -1.61167 4.65
      vertex 3.37625 1.09701 4.65
      vertex 3.37625 -1.09701 4.65
    endloop
  endfacet
  facet normal 0 0 -1
    outer loop
      vertex 3.16307 -1.61167 4.65
      vertex 3.16307 1.61167 4.65
      vertex 3.37625 1.09701 4.65
    endloop
  endfacet
  facet normal 0 0 -1
    outer loop
      vertex 2.87201 -2.08664 4.65
      vertex 3.16307 1.61167 4.65
      vertex 3.16307 -1.61167 4.65
    endloop
  endfacet
  facet normal 0 0 -1
    outer loop
      vertex 2.87201 -2.08664 4.65
      vertex 2.87201 2.08664 4.65
      vertex 3.16307 1.61167 4.65
    endloop
  endfacet
  facet normal 0 0 -1
    outer loop
      vertex 2.51023 -2.51023 4.65
      vertex 2.87201 2.08664 4.65
      vertex 2.87201 -2.08664 4.65
    endloop
  endfacet
  facet normal 0 0 -1
    outer loop
      vertex 2.51023 -2.51023 4.65
      vertex 2.51023 2.51023 4.65
      vertex 2.87201 2.08664 4.65
    endloop
  endfacet
  facet normal 0 0 -1
    outer loop
      vertex 2.08664 -2.87201 4.65
      vertex 2.51023 2.51023 4.65
      vertex 2.51023 -2.51023 4.65
    endloop
  endfacet
  facet normal 0 0 -1
    outer loop
      vertex 2.08664 -2.87201 4.65
      vertex 2.08664 2.87201 4.65
      vertex 2.51023 2.51023 4.65
    endloop
  endfacet
  facet normal 0 0 -1
    outer loop
      vertex 1.61167 -3.16307 4.65
      vertex 2.08664 2.87201 4.65
      vertex 2.08664 -2.87201 4.65
    endloop
  endfacet
  facet normal 0 0 -1
    outer loop
      vertex 1.61167 -3.16307 4.65
      vertex 1.61167 3.16307 4.65
      vertex 2.08664 2.87201 4.65
    endloop
  endfacet
  facet normal 0 0 -1
    outer loop
      vertex 1.09701 -3.37625 4.65
      vertex 1.61167 3.16307 4.65
      vertex 1.61167 -3.16307 4.65
    endloop
  endfacet
  facet normal 0 0 -1
    outer loop
      vertex 1.09701 -3.37625 4.65
      vertex 1.09701 3.37625 4.65
      vertex 1.61167 3.16307 4.65
    endloop
  endfacet
  facet normal 0 0 -1
    outer loop
      vertex 0.555342 -3.50629 4.65
      vertex 1.09701 3.37625 4.65
      vertex 1.09701 -3.37625 4.65
    endloop
  endfacet
  facet normal 0 0 -1
    outer loop
      vertex 0.555342 -3.50629 4.65
      vertex 0.555342 3.50629 4.65
      vertex 1.09701 3.37625 4.65
    endloop
  endfacet
  facet normal 0 0 -1
    outer loop
      vertex 0 -3.55 4.65
      vertex 0.555342 3.50629 4.65
      vertex 0.555342 -3.50629 4.65
    endloop
  endfacet
  facet normal 0 0 -1
    outer loop
      vertex 0 -3.55 4.65
      vertex 0 3.55 4.65
      vertex 0.555342 3.50629 4.65
    endloop
  endfacet
  facet normal 0 0 -1
    outer loop
      vertex -0.555342 -3.50629 4.65
      vertex 0 3.55 4.65
      vertex 0 -3.55 4.65
    endloop
  endfacet
  facet normal 0 0 -1
    outer loop
      vertex -0.555342 -3.50629 4.65
      vertex -0.555342 3.50629 4.65
      vertex 0 3.55 4.65
    endloop
  endfacet
  facet normal 0 0 -1
    outer loop
      vertex -1.09701 -3.37625 4.65
      vertex -0.555342 3.50629 4.65
      vertex -0.555342 -3.50629 4.65
    endloop
  endfacet
  facet normal 0 0 -1
    outer loop
      vertex -1.09701 -3.37625 4.65
      vertex -1.09701 3.37625 4.65
      vertex -0.555342 3.50629 4.65
    endloop
  endfacet
  facet normal 0 0 -1
    outer loop
      vertex -1.61167 -3.16307 4.65
      vertex -1.09701 3.37625 4.65
      vertex -1.09701 -3.37625 4.65
    endloop
  endfacet
  facet normal 0 0 -1
    outer loop
      vertex -1.61167 -3.16307 4.65
      vertex -1.61167 3.16307 4.65
      vertex -1.09701 3.37625 4.65
    endloop
  endfacet
  facet normal 0 0 -1
    outer loop
      vertex -2.08664 -2.87201 4.65
      vertex -1.61167 3.16307 4.65
      vertex -1.61167 -3.16307 4.65
    endloop
  endfacet
  facet normal 0 0 -1
    outer loop
      vertex -2.08664 -2.87201 4.65
      vertex -2.08664 2.87201 4.65
      vertex -1.61167 3.16307 4.65
    endloop
  endfacet
  facet normal 0 0 -1
    outer loop
      vertex -2.51023 -2.51023 4.65
      vertex -2.08664 2.87201 4.65
      vertex -2.08664 -2.87201 4.65
    endloop
  endfacet
  facet normal 0 0 -1
    outer loop
      vertex -2.51023 -2.51023 4.65
      vertex -2.51023 2.51023 4.65
      vertex -2.08664 2.87201 4.65
    endloop
  endfacet
  facet normal 0 0 -1
    outer loop
      vertex -2.87201 -2.08664 4.65
      vertex -2.51023 2.51023 4.65
      vertex -2.51023 -2.51023 4.65
    endloop
  endfacet
  facet normal 0 0 -1
    outer loop
      vertex -2.87201 -2.08664 4.65
      vertex -2.87201 2.08664 4.65
      vertex -2.51023 2.51023 4.65
    endloop
  endfacet
  facet normal 0 0 -1
    outer loop
      vertex -3.16307 -1.61167 4.65
      vertex -2.87201 2.08664 4.65
      vertex -2.87201 -2.08664 4.65
    endloop
  endfacet
  facet normal 0 0 -1
    outer loop
      vertex -3.16307 -1.61167 4.65
      vertex -3.16307 1.61167 4.65
      vertex -2.87201 2.08664 4.65
    endloop
  endfacet
  facet normal 0 0 -1
    outer loop
      vertex -3.37625 -1.09701 4.65
      vertex -3.16307 1.61167 4.65
      vertex -3.16307 -1.61167 4.65
    endloop
  endfacet
  facet normal 0 0 -1
    outer loop
      vertex -3.37625 -1.09701 4.65
      vertex -3.37625 1.09701 4.65
      vertex -3.16307 1.61167 4.65
    endloop
  endfacet
  facet normal 0 0 -1
    outer loop
      vertex -3.50629 -0.555342 4.65
      vertex -3.37625 1.09701 4.65
      vertex -3.37625 -1.09701 4.65
    endloop
  endfacet
  facet normal 0 0 -1
    outer loop
      vertex -3.50629 -0.555342 4.65
      vertex -3.50629 0.555342 4.65
      vertex -3.37625 1.09701 4.65
    endloop
  endfacet
  facet normal 0 -0 -1
    outer loop
      vertex -3.50629 0.555342 4.65
      vertex -3.50629 -0.555342 4.65
      vertex -3.55 0 4.65
    endloop
  endfacet
  facet normal -0 0 -1
    outer loop
      vertex 5.55 0 0
      vertex 4.00014 -0.633559 0
      vertex 4.05 0 0
    endloop
  endfacet
  facet normal 0 0 -1
    outer loop
      vertex 5.55 0 0
      vertex 3.85178 -1.25152 0
      vertex 4.00014 -0.633559 0
    endloop
  endfacet
  facet normal 0 0 -1
    outer loop
      vertex 5.55 0 0
      vertex 3.60858 -1.83866 0
      vertex 3.85178 -1.25152 0
    endloop
  endfacet
  facet normal 0 0 -1
    outer loop
      vertex 2.775 -4.80644 0
      vertex 3.60858 -1.83866 0
      vertex 5.55 0 0
    endloop
  endfacet
  facet normal 0 0 -1
    outer loop
      vertex 3.60858 -1.83866 0
      vertex 2.775 -4.80644 0
      vertex 3.27652 -2.38053 0
    endloop
  endfacet
  facet normal 0 0 -1
    outer loop
      vertex 3.27652 -2.38053 0
      vertex 2.775 -4.80644 0
      vertex 2.86378 -2.86378 0
    endloop
  endfacet
  facet normal 0 0 -1
    outer loop
      vertex 2.775 -4.80644 0
      vertex 2.38053 -3.27652 0
      vertex 2.86378 -2.86378 0
    endloop
  endfacet
  facet normal 0 0 -1
    outer loop
      vertex 2.775 -4.80644 0
      vertex 1.83866 -3.60858 0
      vertex 2.38053 -3.27652 0
    endloop
  endfacet
  facet normal 0 0 -1
    outer loop
      vertex 2.775 -4.80644 0
      vertex 1.25152 -3.85178 0
      vertex 1.83866 -3.60858 0
    endloop
  endfacet
  facet normal 0 0 -1
    outer loop
      vertex 2.775 -4.80644 0
      vertex 0.633559 -4.00014 0
      vertex 1.25152 -3.85178 0
    endloop
  endfacet
  facet normal 0 0 -1
    outer loop
      vertex 2.775 -4.80644 0
      vertex 0 -4.05 0
      vertex 0.633559 -4.00014 0
    endloop
  endfacet
  facet normal 0 0 -1
    outer loop
      vertex -2.775 -4.80644 0
      vertex 0 -4.05 0
      vertex 2.775 -4.80644 0
    endloop
  endfacet
  facet normal -0 0 -1
    outer loop
      vertex 0 -4.05 0
      vertex -2.775 -4.80644 0
      vertex -0.633559 -4.00014 0
    endloop
  endfacet
  facet normal 0 0 -1
    outer loop
      vertex -2.775 -4.80644 0
      vertex -1.25152 -3.85178 0
      vertex -0.633559 -4.00014 0
    endloop
  endfacet
  facet normal 0 0 -1
    outer loop
      vertex -2.775 -4.80644 0
      vertex -1.83866 -3.60858 0
      vertex -1.25152 -3.85178 0
    endloop
  endfacet
  facet normal 0 0 -1
    outer loop
      vertex -2.775 -4.80644 0
      vertex -2.38053 -3.27652 0
      vertex -1.83866 -3.60858 0
    endloop
  endfacet
  facet normal 0 0 -1
    outer loop
      vertex -2.775 -4.80644 0
      vertex -2.86378 -2.86378 0
      vertex -2.38053 -3.27652 0
    endloop
  endfacet
  facet normal 0 0 -1
    outer loop
      vertex -2.775 -4.80644 0
      vertex -3.27652 -2.38053 0
      vertex -2.86378 -2.86378 0
    endloop
  endfacet
  facet normal 0 0 -1
    outer loop
      vertex -2.775 -4.80644 0
      vertex -3.60858 -1.83866 0
      vertex -3.27652 -2.38053 0
    endloop
  endfacet
  facet normal 0 0 -1
    outer loop
      vertex -5.55 0 0
      vertex -3.60858 -1.83866 0
      vertex -2.775 -4.80644 0
    endloop
  endfacet
  facet normal 0 0 -1
    outer loop
      vertex -4.00014 -0.633559 0
      vertex -5.55 0 0
      vertex -4.05 0 0
    endloop
  endfacet
  facet normal 0 0 -1
    outer loop
      vertex -3.85178 -1.25152 0
      vertex -5.55 0 0
      vertex -4.00014 -0.633559 0
    endloop
  endfacet
  facet normal 0 0 -1
    outer loop
      vertex -3.60858 -1.83866 0
      vertex -5.55 0 0
      vertex -3.85178 -1.25152 0
    endloop
  endfacet
  facet normal 0 0 -1
    outer loop
      vertex 4.00014 0.633559 0
      vertex 5.55 0 0
      vertex 4.05 0 0
    endloop
  endfacet
  facet normal 0 0 -1
    outer loop
      vertex 3.85178 1.25152 0
      vertex 5.55 0 0
      vertex 4.00014 0.633559 0
    endloop
  endfacet
  facet normal 0 0 -1
    outer loop
      vertex 3.60858 1.83866 0
      vertex 5.55 0 0
      vertex 3.85178 1.25152 0
    endloop
  endfacet
  facet normal 0 0 -1
    outer loop
      vertex 2.775 4.80644 0
      vertex 3.60858 1.83866 0
      vertex 3.27652 2.38053 0
    endloop
  endfacet
  facet normal 0 0 -1
    outer loop
      vertex 2.775 4.80644 0
      vertex 3.27652 2.38053 0
      vertex 2.86378 2.86378 0
    endloop
  endfacet
  facet normal 0 0 -1
    outer loop
      vertex 3.60858 1.83866 0
      vertex 2.775 4.80644 0
      vertex 5.55 0 0
    endloop
  endfacet
  facet normal 0 0 -1
    outer loop
      vertex 2.38053 3.27652 0
      vertex 2.775 4.80644 0
      vertex 2.86378 2.86378 0
    endloop
  endfacet
  facet normal 0 0 -1
    outer loop
      vertex 1.83866 3.60858 0
      vertex 2.775 4.80644 0
      vertex 2.38053 3.27652 0
    endloop
  endfacet
  facet normal 0 0 -1
    outer loop
      vertex 1.25152 3.85178 0
      vertex 2.775 4.80644 0
      vertex 1.83866 3.60858 0
    endloop
  endfacet
  facet normal 0 0 -1
    outer loop
      vertex 0.633559 4.00014 0
      vertex 2.775 4.80644 0
      vertex 1.25152 3.85178 0
    endloop
  endfacet
  facet normal 0 0 -1
    outer loop
      vertex 0 4.05 0
      vertex 2.775 4.80644 0
      vertex 0.633559 4.00014 0
    endloop
  endfacet
  facet normal 0 0 -1
    outer loop
      vertex -2.775 4.80644 0
      vertex 0 4.05 0
      vertex -0.633559 4.00014 0
    endloop
  endfacet
  facet normal 0 0 -1
    outer loop
      vertex 0 4.05 0
      vertex -2.775 4.80644 0
      vertex 2.775 4.80644 0
    endloop
  endfacet
  facet normal 0 0 -1
    outer loop
      vertex -1.25152 3.85178 0
      vertex -2.775 4.80644 0
      vertex -0.633559 4.00014 0
    endloop
  endfacet
  facet normal 0 0 -1
    outer loop
      vertex -1.83866 3.60858 0
      vertex -2.775 4.80644 0
      vertex -1.25152 3.85178 0
    endloop
  endfacet
  facet normal 0 0 -1
    outer loop
      vertex -2.38053 3.27652 0
      vertex -2.775 4.80644 0
      vertex -1.83866 3.60858 0
    endloop
  endfacet
  facet normal 0 0 -1
    outer loop
      vertex -2.86378 2.86378 0
      vertex -2.775 4.80644 0
      vertex -2.38053 3.27652 0
    endloop
  endfacet
  facet normal 0 0 -1
    outer loop
      vertex -3.27652 2.38053 0
      vertex -2.775 4.80644 0
      vertex -2.86378 2.86378 0
    endloop
  endfacet
  facet normal 0 0 -1
    outer loop
      vertex -3.60858 1.83866 0
      vertex -2.775 4.80644 0
      vertex -3.27652 2.38053 0
    endloop
  endfacet
  facet normal 0 0 -1
    outer loop
      vertex -5.55 0 0
      vertex -3.60858 1.83866 0
      vertex -3.85178 1.25152 0
    endloop
  endfacet
  facet normal -0 0 -1
    outer loop
      vertex -3.60858 1.83866 0
      vertex -5.55 0 0
      vertex -2.775 4.80644 0
    endloop
  endfacet
  facet normal -0 0 -1
    outer loop
      vertex -4.00014 0.633559 0
      vertex -5.55 0 0
      vertex -3.85178 1.25152 0
    endloop
  endfacet
  facet normal 0 0 -1
    outer loop
      vertex -5.55 0 0
      vertex -4.00014 0.633559 0
      vertex -4.05 0 0
    endloop
  endfacet
  facet normal 0 -1 0
    outer loop
      vertex -2.775 -4.80644 0
      vertex 2.775 -4.80644 4.65
      vertex -2.775 -4.80644 4.65
    endloop
  endfacet
  facet normal 0 -1 -0
    outer loop
      vertex 2.775 -4.80644 4.65
      vertex -2.775 -4.80644 0
      vertex 2.775 -4.80644 0
    endloop
  endfacet
  facet normal -0.866025 -0.5 0
    outer loop
      vertex -2.775 -4.80644 0
      vertex -5.55 0 4.65
      vertex -5.55 0 0
    endloop
  endfacet
  facet normal -0.866025 -0.5 0
    outer loop
      vertex -5.55 0 4.65
      vertex -2.775 -4.80644 0
      vertex -2.775 -4.80644 4.65
    endloop
  endfacet
  facet normal 0.866025 -0.5 0
    outer loop
      vertex 2.775 -4.80644 4.65
      vertex 5.55 0 0
      vertex 5.55 0 4.65
    endloop
  endfacet
  facet normal 0.866025 -0.5 0
    outer loop
      vertex 5.55 0 0
      vertex 2.775 -4.80644 4.65
      vertex 2.775 -4.80644 0
    endloop
  endfacet
  facet normal -0.85264 -0.522498 0
    outer loop
      vertex 3.60858 1.83866 0
      vertex 3.27652 2.38053 0.37
      vertex 3.27652 2.38053 0
    endloop
  endfacet
  facet normal -0.85264 -0.522498 0
    outer loop
      vertex 3.27652 2.38053 0.37
      vertex 3.60858 1.83866 0
      vertex 3.60858 1.83866 0.37
    endloop
  endfacet
  facet normal -0.760406 -0.649448 0
    outer loop
      vertex 3.27652 2.38053 0
      vertex 2.86378 2.86378 0.37
      vertex 2.86378 2.86378 0
    endloop
  endfacet
  facet normal -0.760406 -0.649448 0
    outer loop
      vertex 2.86378 2.86378 0.37
      vertex 3.27652 2.38053 0
      vertex 3.27652 2.38053 0.37
    endloop
  endfacet
  facet normal -0.0784587 -0.996917 0
    outer loop
      vertex 0 4.05 0
      vertex 0.633559 4.00014 0.37
      vertex 0 4.05 0.37
    endloop
  endfacet
  facet normal -0.0784587 -0.996917 -0
    outer loop
      vertex 0.633559 4.00014 0.37
      vertex 0 4.05 0
      vertex 0.633559 4.00014 0
    endloop
  endfacet
  facet normal -0.233446 -0.97237 0
    outer loop
      vertex 0.633559 4.00014 0
      vertex 1.25152 3.85178 0.37
      vertex 0.633559 4.00014 0.37
    endloop
  endfacet
  facet normal -0.233446 -0.97237 -0
    outer loop
      vertex 1.25152 3.85178 0.37
      vertex 0.633559 4.00014 0
      vertex 1.25152 3.85178 0
    endloop
  endfacet
  facet normal 0.522498 -0.85264 0
    outer loop
      vertex -2.38053 3.27652 0
      vertex -1.83866 3.60858 0.37
      vertex -2.38053 3.27652 0.37
    endloop
  endfacet
  facet normal 0.522498 -0.85264 0
    outer loop
      vertex -1.83866 3.60858 0.37
      vertex -2.38053 3.27652 0
      vertex -1.83866 3.60858 0
    endloop
  endfacet
  facet normal 0.92388 -0.382683 0
    outer loop
      vertex -3.85178 1.25152 0.37
      vertex -3.60858 1.83866 0
      vertex -3.60858 1.83866 0.37
    endloop
  endfacet
  facet normal 0.92388 -0.382683 0
    outer loop
      vertex -3.60858 1.83866 0
      vertex -3.85178 1.25152 0.37
      vertex -3.85178 1.25152 0
    endloop
  endfacet
  facet normal -0.996917 0.0784587 0
    outer loop
      vertex 4.00014 -0.633559 0
      vertex 4.05 0 0.37
      vertex 4.05 0 0
    endloop
  endfacet
  facet normal -0.996917 0.0784587 0
    outer loop
      vertex 4.05 0 0.37
      vertex 4.00014 -0.633559 0
      vertex 4.00014 -0.633559 0.37
    endloop
  endfacet
  facet normal -0.649448 -0.760406 0
    outer loop
      vertex 2.38053 3.27652 0
      vertex 2.86378 2.86378 0.37
      vertex 2.38053 3.27652 0.37
    endloop
  endfacet
  facet normal -0.649448 -0.760406 -0
    outer loop
      vertex 2.86378 2.86378 0.37
      vertex 2.38053 3.27652 0
      vertex 2.86378 2.86378 0
    endloop
  endfacet
  facet normal 0.0784587 -0.996917 0
    outer loop
      vertex -0.633559 4.00014 0
      vertex 0 4.05 0.37
      vertex -0.633559 4.00014 0.37
    endloop
  endfacet
  facet normal 0.0784587 -0.996917 0
    outer loop
      vertex 0 4.05 0.37
      vertex -0.633559 4.00014 0
      vertex 0 4.05 0
    endloop
  endfacet
  facet normal -0.522498 -0.85264 0
    outer loop
      vertex 1.83866 3.60858 0
      vertex 2.38053 3.27652 0.37
      vertex 1.83866 3.60858 0.37
    endloop
  endfacet
  facet normal -0.522498 -0.85264 -0
    outer loop
      vertex 2.38053 3.27652 0.37
      vertex 1.83866 3.60858 0
      vertex 2.38053 3.27652 0
    endloop
  endfacet
  facet normal 0.996917 -0.0784587 0
    outer loop
      vertex -4.05 0 0.37
      vertex -4.00014 0.633559 0
      vertex -4.00014 0.633559 0.37
    endloop
  endfacet
  facet normal 0.996917 -0.0784587 0
    outer loop
      vertex -4.00014 0.633559 0
      vertex -4.05 0 0.37
      vertex -4.05 0 0
    endloop
  endfacet
  facet normal 0.85264 -0.522498 0
    outer loop
      vertex -3.60858 1.83866 0.37
      vertex -3.27652 2.38053 0
      vertex -3.27652 2.38053 0.37
    endloop
  endfacet
  facet normal 0.85264 -0.522498 0
    outer loop
      vertex -3.27652 2.38053 0
      vertex -3.60858 1.83866 0.37
      vertex -3.60858 1.83866 0
    endloop
  endfacet
  facet normal 0.649448 -0.760406 0
    outer loop
      vertex -2.86378 2.86378 0
      vertex -2.38053 3.27652 0.37
      vertex -2.86378 2.86378 0.37
    endloop
  endfacet
  facet normal 0.649448 -0.760406 0
    outer loop
      vertex -2.38053 3.27652 0.37
      vertex -2.86378 2.86378 0
      vertex -2.38053 3.27652 0
    endloop
  endfacet
  facet normal 0.382683 -0.92388 0
    outer loop
      vertex -1.83866 3.60858 0
      vertex -1.25152 3.85178 0.37
      vertex -1.83866 3.60858 0.37
    endloop
  endfacet
  facet normal 0.382683 -0.92388 0
    outer loop
      vertex -1.25152 3.85178 0.37
      vertex -1.83866 3.60858 0
      vertex -1.25152 3.85178 0
    endloop
  endfacet
  facet normal 0.760406 -0.649448 0
    outer loop
      vertex -3.27652 2.38053 0.37
      vertex -2.86378 2.86378 0
      vertex -2.86378 2.86378 0.37
    endloop
  endfacet
  facet normal 0.760406 -0.649448 0
    outer loop
      vertex -2.86378 2.86378 0
      vertex -3.27652 2.38053 0.37
      vertex -3.27652 2.38053 0
    endloop
  endfacet
  facet normal -0.996917 -0.0784587 0
    outer loop
      vertex 4.05 0 0
      vertex 4.00014 0.633559 0.37
      vertex 4.00014 0.633559 0
    endloop
  endfacet
  facet normal -0.996917 -0.0784587 0
    outer loop
      vertex 4.00014 0.633559 0.37
      vertex 4.05 0 0
      vertex 4.05 0 0.37
    endloop
  endfacet
  facet normal -0.97237 0.233446 0
    outer loop
      vertex 3.85178 -1.25152 0
      vertex 4.00014 -0.633559 0.37
      vertex 4.00014 -0.633559 0
    endloop
  endfacet
  facet normal -0.97237 0.233446 0
    outer loop
      vertex 4.00014 -0.633559 0.37
      vertex 3.85178 -1.25152 0
      vertex 3.85178 -1.25152 0.37
    endloop
  endfacet
  facet normal -0.649448 0.760406 0
    outer loop
      vertex 2.86378 -2.86378 0
      vertex 2.38053 -3.27652 0.37
      vertex 2.86378 -2.86378 0.37
    endloop
  endfacet
  facet normal -0.649448 0.760406 0
    outer loop
      vertex 2.38053 -3.27652 0.37
      vertex 2.86378 -2.86378 0
      vertex 2.38053 -3.27652 0
    endloop
  endfacet
  facet normal -0.92388 -0.382683 0
    outer loop
      vertex 3.85178 1.25152 0
      vertex 3.60858 1.83866 0.37
      vertex 3.60858 1.83866 0
    endloop
  endfacet
  facet normal -0.92388 -0.382683 0
    outer loop
      vertex 3.60858 1.83866 0.37
      vertex 3.85178 1.25152 0
      vertex 3.85178 1.25152 0.37
    endloop
  endfacet
  facet normal -0.382683 -0.92388 0
    outer loop
      vertex 1.25152 3.85178 0
      vertex 1.83866 3.60858 0.37
      vertex 1.25152 3.85178 0.37
    endloop
  endfacet
  facet normal -0.382683 -0.92388 -0
    outer loop
      vertex 1.83866 3.60858 0.37
      vertex 1.25152 3.85178 0
      vertex 1.83866 3.60858 0
    endloop
  endfacet
  facet normal 0.97237 -0.233446 0
    outer loop
      vertex -4.00014 0.633559 0.37
      vertex -3.85178 1.25152 0
      vertex -3.85178 1.25152 0.37
    endloop
  endfacet
  facet normal 0.97237 -0.233446 0
    outer loop
      vertex -3.85178 1.25152 0
      vertex -4.00014 0.633559 0.37
      vertex -4.00014 0.633559 0
    endloop
  endfacet
  facet normal 0.233446 -0.97237 0
    outer loop
      vertex -1.25152 3.85178 0
      vertex -0.633559 4.00014 0.37
      vertex -1.25152 3.85178 0.37
    endloop
  endfacet
  facet normal 0.233446 -0.97237 0
    outer loop
      vertex -0.633559 4.00014 0.37
      vertex -1.25152 3.85178 0
      vertex -0.633559 4.00014 0
    endloop
  endfacet
  facet normal -0.85264 0.522498 0
    outer loop
      vertex 3.27652 -2.38053 0
      vertex 3.60858 -1.83866 0.37
      vertex 3.60858 -1.83866 0
    endloop
  endfacet
  facet normal -0.85264 0.522498 0
    outer loop
      vertex 3.60858 -1.83866 0.37
      vertex 3.27652 -2.38053 0
      vertex 3.27652 -2.38053 0.37
    endloop
  endfacet
  facet normal -0.0784587 0.996917 0
    outer loop
      vertex 0.633559 -4.00014 0
      vertex 0 -4.05 0.37
      vertex 0.633559 -4.00014 0.37
    endloop
  endfacet
  facet normal -0.0784587 0.996917 0
    outer loop
      vertex 0 -4.05 0.37
      vertex 0.633559 -4.00014 0
      vertex 0 -4.05 0
    endloop
  endfacet
  facet normal 0.85264 0.522498 0
    outer loop
      vertex -3.27652 -2.38053 0.37
      vertex -3.60858 -1.83866 0
      vertex -3.60858 -1.83866 0.37
    endloop
  endfacet
  facet normal 0.85264 0.522498 0
    outer loop
      vertex -3.60858 -1.83866 0
      vertex -3.27652 -2.38053 0.37
      vertex -3.27652 -2.38053 0
    endloop
  endfacet
  facet normal -0.233446 0.97237 0
    outer loop
      vertex 1.25152 -3.85178 0
      vertex 0.633559 -4.00014 0.37
      vertex 1.25152 -3.85178 0.37
    endloop
  endfacet
  facet normal -0.233446 0.97237 0
    outer loop
      vertex 0.633559 -4.00014 0.37
      vertex 1.25152 -3.85178 0
      vertex 0.633559 -4.00014 0
    endloop
  endfacet
  facet normal -0.97237 -0.233446 0
    outer loop
      vertex 4.00014 0.633559 0
      vertex 3.85178 1.25152 0.37
      vertex 3.85178 1.25152 0
    endloop
  endfacet
  facet normal -0.97237 -0.233446 0
    outer loop
      vertex 3.85178 1.25152 0.37
      vertex 4.00014 0.633559 0
      vertex 4.00014 0.633559 0.37
    endloop
  endfacet
  facet normal -0.92388 0.382683 0
    outer loop
      vertex 3.60858 -1.83866 0
      vertex 3.85178 -1.25152 0.37
      vertex 3.85178 -1.25152 0
    endloop
  endfacet
  facet normal -0.92388 0.382683 0
    outer loop
      vertex 3.85178 -1.25152 0.37
      vertex 3.60858 -1.83866 0
      vertex 3.60858 -1.83866 0.37
    endloop
  endfacet
  facet normal 0.0784587 0.996917 -0
    outer loop
      vertex 0 -4.05 0
      vertex -0.633559 -4.00014 0.37
      vertex 0 -4.05 0.37
    endloop
  endfacet
  facet normal 0.0784587 0.996917 0
    outer loop
      vertex -0.633559 -4.00014 0.37
      vertex 0 -4.05 0
      vertex -0.633559 -4.00014 0
    endloop
  endfacet
  facet normal 0.522498 0.85264 -0
    outer loop
      vertex -1.83866 -3.60858 0
      vertex -2.38053 -3.27652 0.37
      vertex -1.83866 -3.60858 0.37
    endloop
  endfacet
  facet normal 0.522498 0.85264 0
    outer loop
      vertex -2.38053 -3.27652 0.37
      vertex -1.83866 -3.60858 0
      vertex -2.38053 -3.27652 0
    endloop
  endfacet
  facet normal 0.92388 0.382683 0
    outer loop
      vertex -3.60858 -1.83866 0.37
      vertex -3.85178 -1.25152 0
      vertex -3.85178 -1.25152 0.37
    endloop
  endfacet
  facet normal 0.92388 0.382683 0
    outer loop
      vertex -3.85178 -1.25152 0
      vertex -3.60858 -1.83866 0.37
      vertex -3.60858 -1.83866 0
    endloop
  endfacet
  facet normal 0.97237 0.233446 0
    outer loop
      vertex -3.85178 -1.25152 0.37
      vertex -4.00014 -0.633559 0
      vertex -4.00014 -0.633559 0.37
    endloop
  endfacet
  facet normal 0.97237 0.233446 0
    outer loop
      vertex -4.00014 -0.633559 0
      vertex -3.85178 -1.25152 0.37
      vertex -3.85178 -1.25152 0
    endloop
  endfacet
  facet normal 0.996917 0.0784587 0
    outer loop
      vertex -4.00014 -0.633559 0.37
      vertex -4.05 0 0
      vertex -4.05 0 0.37
    endloop
  endfacet
  facet normal 0.996917 0.0784587 0
    outer loop
      vertex -4.05 0 0
      vertex -4.00014 -0.633559 0.37
      vertex -4.00014 -0.633559 0
    endloop
  endfacet
  facet normal -0.522498 0.85264 0
    outer loop
      vertex 2.38053 -3.27652 0
      vertex 1.83866 -3.60858 0.37
      vertex 2.38053 -3.27652 0.37
    endloop
  endfacet
  facet normal -0.522498 0.85264 0
    outer loop
      vertex 1.83866 -3.60858 0.37
      vertex 2.38053 -3.27652 0
      vertex 1.83866 -3.60858 0
    endloop
  endfacet
  facet normal -0.382683 0.92388 0
    outer loop
      vertex 1.83866 -3.60858 0
      vertex 1.25152 -3.85178 0.37
      vertex 1.83866 -3.60858 0.37
    endloop
  endfacet
  facet normal -0.382683 0.92388 0
    outer loop
      vertex 1.25152 -3.85178 0.37
      vertex 1.83866 -3.60858 0
      vertex 1.25152 -3.85178 0
    endloop
  endfacet
  facet normal -0.760406 0.649448 0
    outer loop
      vertex 2.86378 -2.86378 0
      vertex 3.27652 -2.38053 0.37
      vertex 3.27652 -2.38053 0
    endloop
  endfacet
  facet normal -0.760406 0.649448 0
    outer loop
      vertex 3.27652 -2.38053 0.37
      vertex 2.86378 -2.86378 0
      vertex 2.86378 -2.86378 0.37
    endloop
  endfacet
  facet normal 0.382683 0.92388 -0
    outer loop
      vertex -1.25152 -3.85178 0
      vertex -1.83866 -3.60858 0.37
      vertex -1.25152 -3.85178 0.37
    endloop
  endfacet
  facet normal 0.382683 0.92388 0
    outer loop
      vertex -1.83866 -3.60858 0.37
      vertex -1.25152 -3.85178 0
      vertex -1.83866 -3.60858 0
    endloop
  endfacet
  facet normal 0.760406 0.649448 0
    outer loop
      vertex -2.86378 -2.86378 0.37
      vertex -3.27652 -2.38053 0
      vertex -3.27652 -2.38053 0.37
    endloop
  endfacet
  facet normal 0.760406 0.649448 0
    outer loop
      vertex -3.27652 -2.38053 0
      vertex -2.86378 -2.86378 0.37
      vertex -2.86378 -2.86378 0
    endloop
  endfacet
  facet normal 0.649448 0.760406 -0
    outer loop
      vertex -2.38053 -3.27652 0
      vertex -2.86378 -2.86378 0.37
      vertex -2.38053 -3.27652 0.37
    endloop
  endfacet
  facet normal 0.649448 0.760406 0
    outer loop
      vertex -2.86378 -2.86378 0.37
      vertex -2.38053 -3.27652 0
      vertex -2.86378 -2.86378 0
    endloop
  endfacet
  facet normal 0.233446 0.97237 -0
    outer loop
      vertex -0.633559 -4.00014 0
      vertex -1.25152 -3.85178 0.37
      vertex -0.633559 -4.00014 0.37
    endloop
  endfacet
  facet normal 0.233446 0.97237 0
    outer loop
      vertex -1.25152 -3.85178 0.37
      vertex -0.633559 -4.00014 0
      vertex -1.25152 -3.85178 0
    endloop
  endfacet
  facet normal -0.990225 -0.0779316 -0.11568
    outer loop
      vertex 4.05 0 0.37
      vertex 3.55 0 4.65
      vertex 3.50629 0.555342 4.65
    endloop
  endfacet
  facet normal -0.990225 -0.0779319 -0.11568
    outer loop
      vertex 4.00014 0.633559 0.37
      vertex 4.05 0 0.37
      vertex 3.50629 0.555342 4.65
    endloop
  endfacet
  facet normal 0.645088 0.755301 -0.11568
    outer loop
      vertex -2.08664 -2.87201 4.65
      vertex -2.38053 -3.27652 0.37
      vertex -2.86378 -2.86378 0.37
    endloop
  endfacet
  facet normal -0.51899 -0.846916 -0.11568
    outer loop
      vertex 2.38053 3.27652 0.37
      vertex 2.08664 2.87201 4.65
      vertex 1.83866 3.60858 0.37
    endloop
  endfacet
  facet normal -0.846917 0.51899 -0.11568
    outer loop
      vertex 3.16307 -1.61167 4.65
      vertex 3.60858 -1.83866 0.37
      vertex 2.87201 -2.08664 4.65
    endloop
  endfacet
  facet normal 0.51899 -0.846916 -0.11568
    outer loop
      vertex -1.83866 3.60858 0.37
      vertex -2.08664 2.87201 4.65
      vertex -2.38053 3.27652 0.37
    endloop
  endfacet
  facet normal -0.755301 -0.645088 -0.11568
    outer loop
      vertex 3.27652 2.38053 0.37
      vertex 2.87201 2.08664 4.65
      vertex 2.86378 2.86378 0.37
    endloop
  endfacet
  facet normal 0.917677 0.380115 -0.11568
    outer loop
      vertex -3.37625 -1.09701 4.65
      vertex -3.16307 -1.61167 4.65
      vertex -3.60858 -1.83866 0.37
    endloop
  endfacet
  facet normal -0.755301 0.645088 -0.11568
    outer loop
      vertex 2.87201 -2.08664 4.65
      vertex 3.27652 -2.38053 0.37
      vertex 2.86378 -2.86378 0.37
    endloop
  endfacet
  facet normal -0.380115 0.917677 -0.11568
    outer loop
      vertex 1.61167 -3.16307 4.65
      vertex 1.83866 -3.60858 0.37
      vertex 1.09701 -3.37625 4.65
    endloop
  endfacet
  facet normal -0.990225 0.0779316 -0.11568
    outer loop
      vertex 3.55 0 4.65
      vertex 4.05 0 0.37
      vertex 3.50629 -0.555342 4.65
    endloop
  endfacet
  facet normal -0.965842 0.231879 -0.11568
    outer loop
      vertex 4.00014 -0.633559 0.37
      vertex 3.85178 -1.25152 0.37
      vertex 3.37625 -1.09701 4.65
    endloop
  endfacet
  facet normal 0.990225 -0.0779316 -0.11568
    outer loop
      vertex -3.50629 0.555342 4.65
      vertex -3.55 0 4.65
      vertex -4.05 0 0.37
    endloop
  endfacet
  facet normal -0.645088 -0.755301 -0.11568
    outer loop
      vertex 2.38053 3.27652 0.37
      vertex 2.86378 2.86378 0.37
      vertex 2.08664 2.87201 4.65
    endloop
  endfacet
  facet normal -0.846917 -0.51899 -0.11568
    outer loop
      vertex 3.60858 1.83866 0.37
      vertex 3.16307 1.61167 4.65
      vertex 2.87201 2.08664 4.65
    endloop
  endfacet
  facet normal -0.846916 -0.51899 -0.11568
    outer loop
      vertex 3.27652 2.38053 0.37
      vertex 3.60858 1.83866 0.37
      vertex 2.87201 2.08664 4.65
    endloop
  endfacet
  facet normal -0.380114 -0.917677 -0.11568
    outer loop
      vertex 1.25152 3.85178 0.37
      vertex 1.83866 3.60858 0.37
      vertex 1.09701 3.37625 4.65
    endloop
  endfacet
  facet normal 0.0779319 -0.990225 -0.11568
    outer loop
      vertex 0 4.05 0.37
      vertex -0.555342 3.50629 4.65
      vertex -0.633559 4.00014 0.37
    endloop
  endfacet
  facet normal -0.0779319 -0.990225 -0.11568
    outer loop
      vertex 0.633559 4.00014 0.37
      vertex 0.555342 3.50629 4.65
      vertex 0 4.05 0.37
    endloop
  endfacet
  facet normal 0.0779316 -0.990225 -0.11568
    outer loop
      vertex 0 4.05 0.37
      vertex 0 3.55 4.65
      vertex -0.555342 3.50629 4.65
    endloop
  endfacet
  facet normal 0.990225 0.0779319 -0.11568
    outer loop
      vertex -3.50629 -0.555342 4.65
      vertex -4.00014 -0.633559 0.37
      vertex -4.05 0 0.37
    endloop
  endfacet
  facet normal 0.917677 0.380114 -0.11568
    outer loop
      vertex -3.37625 -1.09701 4.65
      vertex -3.60858 -1.83866 0.37
      vertex -3.85178 -1.25152 0.37
    endloop
  endfacet
  facet normal 0.231878 0.965842 -0.11568
    outer loop
      vertex -0.555342 -3.50629 4.65
      vertex -0.633559 -4.00014 0.37
      vertex -1.09701 -3.37625 4.65
    endloop
  endfacet
  facet normal -0.0779319 0.990225 -0.11568
    outer loop
      vertex 0.555342 -3.50629 4.65
      vertex 0.633559 -4.00014 0.37
      vertex 0 -4.05 0.37
    endloop
  endfacet
  facet normal -0.380114 0.917677 -0.11568
    outer loop
      vertex 1.83866 -3.60858 0.37
      vertex 1.25152 -3.85178 0.37
      vertex 1.09701 -3.37625 4.65
    endloop
  endfacet
  facet normal -0.846916 0.51899 -0.11568
    outer loop
      vertex 3.60858 -1.83866 0.37
      vertex 3.27652 -2.38053 0.37
      vertex 2.87201 -2.08664 4.65
    endloop
  endfacet
  facet normal -0.990225 0.0779319 -0.11568
    outer loop
      vertex 4.05 0 0.37
      vertex 4.00014 -0.633559 0.37
      vertex 3.50629 -0.555342 4.65
    endloop
  endfacet
  facet normal -0.965842 -0.231878 -0.11568
    outer loop
      vertex 4.00014 0.633559 0.37
      vertex 3.50629 0.555342 4.65
      vertex 3.37625 1.09701 4.65
    endloop
  endfacet
  facet normal 0.965842 -0.231878 -0.11568
    outer loop
      vertex -3.37625 1.09701 4.65
      vertex -3.50629 0.555342 4.65
      vertex -4.00014 0.633559 0.37
    endloop
  endfacet
  facet normal 0.990225 0.0779316 -0.11568
    outer loop
      vertex -3.55 0 4.65
      vertex -3.50629 -0.555342 4.65
      vertex -4.05 0 0.37
    endloop
  endfacet
  facet normal 0.51899 -0.846917 -0.11568
    outer loop
      vertex -1.83866 3.60858 0.37
      vertex -1.61167 3.16307 4.65
      vertex -2.08664 2.87201 4.65
    endloop
  endfacet
  facet normal 0.755301 -0.645088 -0.11568
    outer loop
      vertex -2.86378 2.86378 0.37
      vertex -2.87201 2.08664 4.65
      vertex -3.27652 2.38053 0.37
    endloop
  endfacet
  facet normal -0.7553 -0.645089 -0.115681
    outer loop
      vertex 2.86378 2.86378 0.37
      vertex 2.87201 2.08664 4.65
      vertex 2.51023 2.51023 4.65
    endloop
  endfacet
  facet normal -0.645089 -0.7553 -0.115681
    outer loop
      vertex 2.86378 2.86378 0.37
      vertex 2.51023 2.51023 4.65
      vertex 2.08664 2.87201 4.65
    endloop
  endfacet
  facet normal -0.965842 -0.231879 -0.11568
    outer loop
      vertex 3.85178 1.25152 0.37
      vertex 4.00014 0.633559 0.37
      vertex 3.37625 1.09701 4.65
    endloop
  endfacet
  facet normal -0.917677 -0.380114 -0.11568
    outer loop
      vertex 3.60858 1.83866 0.37
      vertex 3.85178 1.25152 0.37
      vertex 3.37625 1.09701 4.65
    endloop
  endfacet
  facet normal -0.231878 -0.965842 -0.11568
    outer loop
      vertex 0.633559 4.00014 0.37
      vertex 1.09701 3.37625 4.65
      vertex 0.555342 3.50629 4.65
    endloop
  endfacet
  facet normal -0.0779316 -0.990225 -0.11568
    outer loop
      vertex 0 4.05 0.37
      vertex 0.555342 3.50629 4.65
      vertex 0 3.55 4.65
    endloop
  endfacet
  facet normal 0.755301 0.645088 -0.11568
    outer loop
      vertex -2.87201 -2.08664 4.65
      vertex -2.86378 -2.86378 0.37
      vertex -3.27652 -2.38053 0.37
    endloop
  endfacet
  facet normal 0.846916 0.51899 -0.11568
    outer loop
      vertex -2.87201 -2.08664 4.65
      vertex -3.27652 -2.38053 0.37
      vertex -3.60858 -1.83866 0.37
    endloop
  endfacet
  facet normal 0.7553 0.645089 -0.115681
    outer loop
      vertex -2.51023 -2.51023 4.65
      vertex -2.86378 -2.86378 0.37
      vertex -2.87201 -2.08664 4.65
    endloop
  endfacet
  facet normal 0.645089 0.7553 -0.115681
    outer loop
      vertex -2.51023 -2.51023 4.65
      vertex -2.08664 -2.87201 4.65
      vertex -2.86378 -2.86378 0.37
    endloop
  endfacet
  facet normal 0.965842 0.231878 -0.11568
    outer loop
      vertex -3.50629 -0.555342 4.65
      vertex -3.37625 -1.09701 4.65
      vertex -4.00014 -0.633559 0.37
    endloop
  endfacet
  facet normal 0.965842 0.231879 -0.11568
    outer loop
      vertex -3.37625 -1.09701 4.65
      vertex -3.85178 -1.25152 0.37
      vertex -4.00014 -0.633559 0.37
    endloop
  endfacet
  facet normal 0.51899 0.846916 -0.11568
    outer loop
      vertex -2.08664 -2.87201 4.65
      vertex -1.83866 -3.60858 0.37
      vertex -2.38053 -3.27652 0.37
    endloop
  endfacet
  facet normal 0.0779316 0.990225 -0.11568
    outer loop
      vertex 0 -3.55 4.65
      vertex 0 -4.05 0.37
      vertex -0.555342 -3.50629 4.65
    endloop
  endfacet
  facet normal -0.645088 0.755301 -0.11568
    outer loop
      vertex 2.86378 -2.86378 0.37
      vertex 2.38053 -3.27652 0.37
      vertex 2.08664 -2.87201 4.65
    endloop
  endfacet
  facet normal -0.51899 0.846916 -0.11568
    outer loop
      vertex 2.08664 -2.87201 4.65
      vertex 2.38053 -3.27652 0.37
      vertex 1.83866 -3.60858 0.37
    endloop
  endfacet
  facet normal -0.645089 0.7553 -0.115681
    outer loop
      vertex 2.51023 -2.51023 4.65
      vertex 2.86378 -2.86378 0.37
      vertex 2.08664 -2.87201 4.65
    endloop
  endfacet
  facet normal -0.7553 0.645089 -0.115681
    outer loop
      vertex 2.87201 -2.08664 4.65
      vertex 2.86378 -2.86378 0.37
      vertex 2.51023 -2.51023 4.65
    endloop
  endfacet
  facet normal -0.231878 0.965842 -0.11568
    outer loop
      vertex 1.09701 -3.37625 4.65
      vertex 0.633559 -4.00014 0.37
      vertex 0.555342 -3.50629 4.65
    endloop
  endfacet
  facet normal -0.231879 0.965842 -0.11568
    outer loop
      vertex 1.09701 -3.37625 4.65
      vertex 1.25152 -3.85178 0.37
      vertex 0.633559 -4.00014 0.37
    endloop
  endfacet
  facet normal -0.917677 0.380115 -0.11568
    outer loop
      vertex 3.37625 -1.09701 4.65
      vertex 3.60858 -1.83866 0.37
      vertex 3.16307 -1.61167 4.65
    endloop
  endfacet
  facet normal -0.917677 0.380114 -0.11568
    outer loop
      vertex 3.85178 -1.25152 0.37
      vertex 3.60858 -1.83866 0.37
      vertex 3.37625 -1.09701 4.65
    endloop
  endfacet
  facet normal -0.965842 0.231878 -0.11568
    outer loop
      vertex 3.50629 -0.555342 4.65
      vertex 4.00014 -0.633559 0.37
      vertex 3.37625 -1.09701 4.65
    endloop
  endfacet
  facet normal 0.846916 -0.51899 -0.11568
    outer loop
      vertex -3.27652 2.38053 0.37
      vertex -2.87201 2.08664 4.65
      vertex -3.60858 1.83866 0.37
    endloop
  endfacet
  facet normal 0.990225 -0.0779319 -0.11568
    outer loop
      vertex -4.00014 0.633559 0.37
      vertex -3.50629 0.555342 4.65
      vertex -4.05 0 0.37
    endloop
  endfacet
  facet normal 0.965842 -0.231879 -0.11568
    outer loop
      vertex -3.85178 1.25152 0.37
      vertex -3.37625 1.09701 4.65
      vertex -4.00014 0.633559 0.37
    endloop
  endfacet
  facet normal 0.645089 -0.7553 -0.115681
    outer loop
      vertex -2.08664 2.87201 4.65
      vertex -2.51023 2.51023 4.65
      vertex -2.86378 2.86378 0.37
    endloop
  endfacet
  facet normal 0.7553 -0.645089 -0.115681
    outer loop
      vertex -2.86378 2.86378 0.37
      vertex -2.51023 2.51023 4.65
      vertex -2.87201 2.08664 4.65
    endloop
  endfacet
  facet normal -0.917677 -0.380115 -0.11568
    outer loop
      vertex 3.60858 1.83866 0.37
      vertex 3.37625 1.09701 4.65
      vertex 3.16307 1.61167 4.65
    endloop
  endfacet
  facet normal -0.51899 -0.846917 -0.11568
    outer loop
      vertex 1.83866 3.60858 0.37
      vertex 2.08664 2.87201 4.65
      vertex 1.61167 3.16307 4.65
    endloop
  endfacet
  facet normal -0.380115 -0.917677 -0.11568
    outer loop
      vertex 1.83866 3.60858 0.37
      vertex 1.61167 3.16307 4.65
      vertex 1.09701 3.37625 4.65
    endloop
  endfacet
  facet normal -0.231879 -0.965842 -0.11568
    outer loop
      vertex 1.25152 3.85178 0.37
      vertex 1.09701 3.37625 4.65
      vertex 0.633559 4.00014 0.37
    endloop
  endfacet
  facet normal 0.846917 0.51899 -0.11568
    outer loop
      vertex -3.16307 -1.61167 4.65
      vertex -2.87201 -2.08664 4.65
      vertex -3.60858 -1.83866 0.37
    endloop
  endfacet
  facet normal 0.380114 0.917677 -0.11568
    outer loop
      vertex -1.09701 -3.37625 4.65
      vertex -1.25152 -3.85178 0.37
      vertex -1.83866 -3.60858 0.37
    endloop
  endfacet
  facet normal 0.0779319 0.990225 -0.11568
    outer loop
      vertex -0.555342 -3.50629 4.65
      vertex 0 -4.05 0.37
      vertex -0.633559 -4.00014 0.37
    endloop
  endfacet
  facet normal -0.0779316 0.990225 -0.11568
    outer loop
      vertex 0 -3.55 4.65
      vertex 0.555342 -3.50629 4.65
      vertex 0 -4.05 0.37
    endloop
  endfacet
  facet normal -0.51899 0.846917 -0.11568
    outer loop
      vertex 2.08664 -2.87201 4.65
      vertex 1.83866 -3.60858 0.37
      vertex 1.61167 -3.16307 4.65
    endloop
  endfacet
  facet normal 0.846917 -0.51899 -0.11568
    outer loop
      vertex -2.87201 2.08664 4.65
      vertex -3.16307 1.61167 4.65
      vertex -3.60858 1.83866 0.37
    endloop
  endfacet
  facet normal 0.917677 -0.380115 -0.11568
    outer loop
      vertex -3.16307 1.61167 4.65
      vertex -3.37625 1.09701 4.65
      vertex -3.60858 1.83866 0.37
    endloop
  endfacet
  facet normal 0.917677 -0.380114 -0.11568
    outer loop
      vertex -3.60858 1.83866 0.37
      vertex -3.37625 1.09701 4.65
      vertex -3.85178 1.25152 0.37
    endloop
  endfacet
  facet normal 0.231878 -0.965842 -0.11568
    outer loop
      vertex -0.633559 4.00014 0.37
      vertex -0.555342 3.50629 4.65
      vertex -1.09701 3.37625 4.65
    endloop
  endfacet
  facet normal 0.380114 -0.917677 -0.11568
    outer loop
      vertex -1.25152 3.85178 0.37
      vertex -1.09701 3.37625 4.65
      vertex -1.83866 3.60858 0.37
    endloop
  endfacet
  facet normal 0.645088 -0.755301 -0.11568
    outer loop
      vertex -2.38053 3.27652 0.37
      vertex -2.08664 2.87201 4.65
      vertex -2.86378 2.86378 0.37
    endloop
  endfacet
  facet normal 0.51899 0.846917 -0.11568
    outer loop
      vertex -1.61167 -3.16307 4.65
      vertex -1.83866 -3.60858 0.37
      vertex -2.08664 -2.87201 4.65
    endloop
  endfacet
  facet normal 0.380115 0.917677 -0.11568
    outer loop
      vertex -1.61167 -3.16307 4.65
      vertex -1.09701 -3.37625 4.65
      vertex -1.83866 -3.60858 0.37
    endloop
  endfacet
  facet normal 0.231879 0.965842 -0.11568
    outer loop
      vertex -1.09701 -3.37625 4.65
      vertex -0.633559 -4.00014 0.37
      vertex -1.25152 -3.85178 0.37
    endloop
  endfacet
  facet normal 0.380115 -0.917677 -0.11568
    outer loop
      vertex -1.09701 3.37625 4.65
      vertex -1.61167 3.16307 4.65
      vertex -1.83866 3.60858 0.37
    endloop
  endfacet
  facet normal 0.231879 -0.965842 -0.11568
    outer loop
      vertex -0.633559 4.00014 0.37
      vertex -1.09701 3.37625 4.65
      vertex -1.25152 3.85178 0.37
    endloop
  endfacet
  facet normal 0.645348 0.372592 0.666859
    outer loop
      vertex 2.775 4.80644 4.65
      vertex 2.45 0 7.65
      vertex 5.55 0 4.65
    endloop
  endfacet
  facet normal -0.645348 -0.372592 0.666859
    outer loop
      vertex -2.45 0 7.65
      vertex -5.55 0 4.65
      vertex -2.775 -4.80644 4.65
    endloop
  endfacet
  facet normal 0 0.745183 0.666859
    outer loop
      vertex 2.775 4.80644 4.65
      vertex -1.225 2.12176 7.65
      vertex 1.225 2.12176 7.65
    endloop
  endfacet
  facet normal 0 0.745183 0.666859
    outer loop
      vertex -1.225 2.12176 7.65
      vertex 2.775 4.80644 4.65
      vertex -2.775 4.80644 4.65
    endloop
  endfacet
  facet normal 0.645348 0.372592 0.66686
    outer loop
      vertex 2.775 4.80644 4.65
      vertex 1.225 2.12176 7.65
      vertex 2.45 0 7.65
    endloop
  endfacet
  facet normal -0.645348 -0.372592 0.66686
    outer loop
      vertex -2.45 0 7.65
      vertex -2.775 -4.80644 4.65
      vertex -1.225 -2.12176 7.65
    endloop
  endfacet
  facet normal 0 -0.745183 0.666859
    outer loop
      vertex -2.775 -4.80644 4.65
      vertex 1.225 -2.12176 7.65
      vertex -1.225 -2.12176 7.65
    endloop
  endfacet
  facet normal 0 -0.745183 0.666859
    outer loop
      vertex 1.225 -2.12176 7.65
      vertex -2.775 -4.80644 4.65
      vertex 2.775 -4.80644 4.65
    endloop
  endfacet
  facet normal 0.645348 -0.372592 0.666859
    outer loop
      vertex 5.55 0 4.65
      vertex 2.45 0 7.65
      vertex 2.775 -4.80644 4.65
    endloop
  endfacet
  facet normal -0.645348 0.372592 0.66686
    outer loop
      vertex -1.225 2.12176 7.65
      vertex -2.775 4.80644 4.65
      vertex -2.45 0 7.65
    endloop
  endfacet
  facet normal -0.645348 0.372592 0.666859
    outer loop
      vertex -2.775 4.80644 4.65
      vertex -5.55 0 4.65
      vertex -2.45 0 7.65
    endloop
  endfacet
  facet normal 0.645348 -0.372592 0.66686
    outer loop
      vertex 2.45 0 7.65
      vertex 1.225 -2.12176 7.65
      vertex 2.775 -4.80644 4.65
    endloop
  endfacet
  facet normal 0.866025 0.5 0
    outer loop
      vertex 2.45 0 11.65
      vertex 1.225 2.12176 7.65
      vertex 1.225 2.12176 11.65
    endloop
  endfacet
  facet normal 0.866025 0.5 0
    outer loop
      vertex 1.225 2.12176 7.65
      vertex 2.45 0 11.65
      vertex 2.45 0 7.65
    endloop
  endfacet
  facet normal -0.866025 0.5 0
    outer loop
      vertex -2.45 0 7.65
      vertex -1.225 2.12176 11.65
      vertex -1.225 2.12176 7.65
    endloop
  endfacet
  facet normal -0.866025 0.5 0
    outer loop
      vertex -1.225 2.12176 11.65
      vertex -2.45 0 7.65
      vertex -2.45 0 11.65
    endloop
  endfacet
  facet normal 0 1 -0
    outer loop
      vertex 1.225 2.12176 7.65
      vertex -1.225 2.12176 11.65
      vertex 1.225 2.12176 11.65
    endloop
  endfacet
  facet normal 0 1 0
    outer loop
      vertex -1.225 2.12176 11.65
      vertex 1.225 2.12176 7.65
      vertex -1.225 2.12176 7.65
    endloop
  endfacet
  facet normal -0.866025 -0.5 0
    outer loop
      vertex -1.225 -2.12176 7.65
      vertex -2.45 0 11.65
      vertex -2.45 0 7.65
    endloop
  endfacet
  facet normal -0.866025 -0.5 0
    outer loop
      vertex -2.45 0 11.65
      vertex -1.225 -2.12176 7.65
      vertex -1.225 -2.12176 11.65
    endloop
  endfacet
  facet normal 0 0 1
    outer loop
      vertex 1.225 2.12176 11.65
      vertex 1.225 -2.12176 11.65
      vertex 2.45 0 11.65
    endloop
  endfacet
  facet normal -0 0 1
    outer loop
      vertex -1.225 2.12176 11.65
      vertex 1.225 -2.12176 11.65
      vertex 1.225 2.12176 11.65
    endloop
  endfacet
  facet normal 0 0 1
    outer loop
      vertex -1.225 2.12176 11.65
      vertex -1.225 -2.12176 11.65
      vertex 1.225 -2.12176 11.65
    endloop
  endfacet
  facet normal 0 -0 1
    outer loop
      vertex -1.225 -2.12176 11.65
      vertex -1.225 2.12176 11.65
      vertex -2.45 0 11.65
    endloop
  endfacet
  facet normal 0.866025 -0.5 0
    outer loop
      vertex 1.225 -2.12176 11.65
      vertex 2.45 0 7.65
      vertex 2.45 0 11.65
    endloop
  endfacet
  facet normal 0.866025 -0.5 0
    outer loop
      vertex 2.45 0 7.65
      vertex 1.225 -2.12176 11.65
      vertex 1.225 -2.12176 7.65
    endloop
  endfacet
  facet normal 0 -1 0
    outer loop
      vertex -1.225 -2.12176 7.65
      vertex 1.225 -2.12176 11.65
      vertex -1.225 -2.12176 11.65
    endloop
  endfacet
  facet normal 0 -1 -0
    outer loop
      vertex 1.225 -2.12176 11.65
      vertex -1.225 -2.12176 7.65
      vertex 1.225 -2.12176 7.65
    endloop
  endfacet
endsolid OpenSCAD_Model
