solid OpenSCAD_Model
  facet normal 0.866025 0.5 0
    outer loop
      vertex 5.475 0 4.65
      vertex 2.7375 4.74149 0
      vertex 2.7375 4.74149 4.65
    endloop
  endfacet
  facet normal 0.866025 0.5 0
    outer loop
      vertex 2.7375 4.74149 0
      vertex 5.475 0 4.65
      vertex 5.475 0 0
    endloop
  endfacet
  facet normal -0.866025 0.5 0
    outer loop
      vertex -5.475 0 0
      vertex -2.7375 4.74149 4.65
      vertex -2.7375 4.74149 0
    endloop
  endfacet
  facet normal -0.866025 0.5 0
    outer loop
      vertex -2.7375 4.74149 4.65
      vertex -5.475 0 0
      vertex -5.475 0 4.65
    endloop
  endfacet
  facet normal 0 1 -0
    outer loop
      vertex 2.7375 4.74149 0
      vertex -2.7375 4.74149 4.65
      vertex 2.7375 4.74149 4.65
    endloop
  endfacet
  facet normal 0 1 0
    outer loop
      vertex -2.7375 4.74149 4.65
      vertex 2.7375 4.74149 0
      vertex -2.7375 4.74149 0
    endloop
  endfacet
  facet normal -0.866025 -0.5 0
    outer loop
      vertex -2.7375 -4.74149 0
      vertex -5.475 0 4.65
      vertex -5.475 0 0
    endloop
  endfacet
  facet normal -0.866025 -0.5 0
    outer loop
      vertex -5.475 0 4.65
      vertex -2.7375 -4.74149 0
      vertex -2.7375 -4.74149 4.65
    endloop
  endfacet
  facet normal 0 0 -1
    outer loop
      vertex 3.18529 -0.5045 4.65
      vertex 3.18529 0.5045 4.65
      vertex 3.225 0 4.65
    endloop
  endfacet
  facet normal 0 0 -1
    outer loop
      vertex 3.06716 -0.996579 4.65
      vertex 3.18529 0.5045 4.65
      vertex 3.18529 -0.5045 4.65
    endloop
  endfacet
  facet normal 0 0 -1
    outer loop
      vertex 3.06716 -0.996579 4.65
      vertex 3.06716 0.996579 4.65
      vertex 3.18529 0.5045 4.65
    endloop
  endfacet
  facet normal 0 0 -1
    outer loop
      vertex 2.8735 -1.46412 4.65
      vertex 3.06716 0.996579 4.65
      vertex 3.06716 -0.996579 4.65
    endloop
  endfacet
  facet normal 0 0 -1
    outer loop
      vertex 2.8735 -1.46412 4.65
      vertex 2.8735 1.46412 4.65
      vertex 3.06716 0.996579 4.65
    endloop
  endfacet
  facet normal 0 0 -1
    outer loop
      vertex 2.60908 -1.89561 4.65
      vertex 2.8735 1.46412 4.65
      vertex 2.8735 -1.46412 4.65
    endloop
  endfacet
  facet normal 0 0 -1
    outer loop
      vertex 2.60908 -1.89561 4.65
      vertex 2.60908 1.89561 4.65
      vertex 2.8735 1.46412 4.65
    endloop
  endfacet
  facet normal 0 0 -1
    outer loop
      vertex 2.28042 -2.28042 4.65
      vertex 2.60908 1.89561 4.65
      vertex 2.60908 -1.89561 4.65
    endloop
  endfacet
  facet normal 0 0 -1
    outer loop
      vertex 2.28042 -2.28042 4.65
      vertex 2.28042 2.28042 4.65
      vertex 2.60908 1.89561 4.65
    endloop
  endfacet
  facet normal 0 0 -1
    outer loop
      vertex 1.89561 -2.60908 4.65
      vertex 2.28042 2.28042 4.65
      vertex 2.28042 -2.28042 4.65
    endloop
  endfacet
  facet normal 0 0 -1
    outer loop
      vertex 1.89561 -2.60908 4.65
      vertex 1.89561 2.60908 4.65
      vertex 2.28042 2.28042 4.65
    endloop
  endfacet
  facet normal 0 0 -1
    outer loop
      vertex 1.46412 -2.8735 4.65
      vertex 1.89561 2.60908 4.65
      vertex 1.89561 -2.60908 4.65
    endloop
  endfacet
  facet normal 0 0 -1
    outer loop
      vertex 1.46412 -2.8735 4.65
      vertex 1.46412 2.8735 4.65
      vertex 1.89561 2.60908 4.65
    endloop
  endfacet
  facet normal 0 0 -1
    outer loop
      vertex 0.996579 -3.06716 4.65
      vertex 1.46412 2.8735 4.65
      vertex 1.46412 -2.8735 4.65
    endloop
  endfacet
  facet normal 0 0 -1
    outer loop
      vertex 0.996579 -3.06716 4.65
      vertex 0.996579 3.06716 4.65
      vertex 1.46412 2.8735 4.65
    endloop
  endfacet
  facet normal 0 0 -1
    outer loop
      vertex 0.5045 -3.18529 4.65
      vertex 0.996579 3.06716 4.65
      vertex 0.996579 -3.06716 4.65
    endloop
  endfacet
  facet normal 0 0 -1
    outer loop
      vertex 0.5045 -3.18529 4.65
      vertex 0.5045 3.18529 4.65
      vertex 0.996579 3.06716 4.65
    endloop
  endfacet
  facet normal 0 0 -1
    outer loop
      vertex 0 -3.225 4.65
      vertex 0.5045 3.18529 4.65
      vertex 0.5045 -3.18529 4.65
    endloop
  endfacet
  facet normal 0 0 -1
    outer loop
      vertex 0 -3.225 4.65
      vertex 0 3.225 4.65
      vertex 0.5045 3.18529 4.65
    endloop
  endfacet
  facet normal 0 0 -1
    outer loop
      vertex -0.5045 -3.18529 4.65
      vertex 0 3.225 4.65
      vertex 0 -3.225 4.65
    endloop
  endfacet
  facet normal 0 0 -1
    outer loop
      vertex -0.5045 -3.18529 4.65
      vertex -0.5045 3.18529 4.65
      vertex 0 3.225 4.65
    endloop
  endfacet
  facet normal 0 0 -1
    outer loop
      vertex -0.996579 -3.06716 4.65
      vertex -0.5045 3.18529 4.65
      vertex -0.5045 -3.18529 4.65
    endloop
  endfacet
  facet normal 0 0 -1
    outer loop
      vertex -0.996579 -3.06716 4.65
      vertex -0.996579 3.06716 4.65
      vertex -0.5045 3.18529 4.65
    endloop
  endfacet
  facet normal 0 0 -1
    outer loop
      vertex -1.46412 -2.8735 4.65
      vertex -0.996579 3.06716 4.65
      vertex -0.996579 -3.06716 4.65
    endloop
  endfacet
  facet normal 0 0 -1
    outer loop
      vertex -1.46412 -2.8735 4.65
      vertex -1.46412 2.8735 4.65
      vertex -0.996579 3.06716 4.65
    endloop
  endfacet
  facet normal 0 0 -1
    outer loop
      vertex -1.89561 -2.60908 4.65
      vertex -1.46412 2.8735 4.65
      vertex -1.46412 -2.8735 4.65
    endloop
  endfacet
  facet normal 0 0 -1
    outer loop
      vertex -1.89561 -2.60908 4.65
      vertex -1.89561 2.60908 4.65
      vertex -1.46412 2.8735 4.65
    endloop
  endfacet
  facet normal 0 0 -1
    outer loop
      vertex -2.28042 -2.28042 4.65
      vertex -1.89561 2.60908 4.65
      vertex -1.89561 -2.60908 4.65
    endloop
  endfacet
  facet normal 0 0 -1
    outer loop
      vertex -2.28042 -2.28042 4.65
      vertex -2.28042 2.28042 4.65
      vertex -1.89561 2.60908 4.65
    endloop
  endfacet
  facet normal 0 0 -1
    outer loop
      vertex -2.60908 -1.89561 4.65
      vertex -2.28042 2.28042 4.65
      vertex -2.28042 -2.28042 4.65
    endloop
  endfacet
  facet normal 0 0 -1
    outer loop
      vertex -2.60908 -1.89561 4.65
      vertex -2.60908 1.89561 4.65
      vertex -2.28042 2.28042 4.65
    endloop
  endfacet
  facet normal 0 0 -1
    outer loop
      vertex -2.8735 -1.46412 4.65
      vertex -2.60908 1.89561 4.65
      vertex -2.60908 -1.89561 4.65
    endloop
  endfacet
  facet normal 0 0 -1
    outer loop
      vertex -2.8735 -1.46412 4.65
      vertex -2.8735 1.46412 4.65
      vertex -2.60908 1.89561 4.65
    endloop
  endfacet
  facet normal 0 0 -1
    outer loop
      vertex -3.06716 -0.996579 4.65
      vertex -2.8735 1.46412 4.65
      vertex -2.8735 -1.46412 4.65
    endloop
  endfacet
  facet normal 0 0 -1
    outer loop
      vertex -3.06716 -0.996579 4.65
      vertex -3.06716 0.996579 4.65
      vertex -2.8735 1.46412 4.65
    endloop
  endfacet
  facet normal 0 0 -1
    outer loop
      vertex -3.18529 -0.5045 4.65
      vertex -3.06716 0.996579 4.65
      vertex -3.06716 -0.996579 4.65
    endloop
  endfacet
  facet normal 0 0 -1
    outer loop
      vertex -3.18529 -0.5045 4.65
      vertex -3.18529 0.5045 4.65
      vertex -3.06716 0.996579 4.65
    endloop
  endfacet
  facet normal 0 -0 -1
    outer loop
      vertex -3.18529 0.5045 4.65
      vertex -3.18529 -0.5045 4.65
      vertex -3.225 0 4.65
    endloop
  endfacet
  facet normal 0.866025 -0.5 0
    outer loop
      vertex 2.7375 -4.74149 4.65
      vertex 5.475 0 0
      vertex 5.475 0 4.65
    endloop
  endfacet
  facet normal 0.866025 -0.5 0
    outer loop
      vertex 5.475 0 0
      vertex 2.7375 -4.74149 4.65
      vertex 2.7375 -4.74149 0
    endloop
  endfacet
  facet normal -0 0 -1
    outer loop
      vertex 5.475 0 0
      vertex 3.92606 -0.621826 0
      vertex 3.975 0 0
    endloop
  endfacet
  facet normal 0 0 -1
    outer loop
      vertex 5.475 0 0
      vertex 3.78045 -1.22834 0
      vertex 3.92606 -0.621826 0
    endloop
  endfacet
  facet normal 0 0 -1
    outer loop
      vertex 5.475 0 0
      vertex 3.54175 -1.80461 0
      vertex 3.78045 -1.22834 0
    endloop
  endfacet
  facet normal 0 0 -1
    outer loop
      vertex 2.7375 -4.74149 0
      vertex 3.54175 -1.80461 0
      vertex 5.475 0 0
    endloop
  endfacet
  facet normal 0 0 -1
    outer loop
      vertex 3.54175 -1.80461 0
      vertex 2.7375 -4.74149 0
      vertex 3.21584 -2.33645 0
    endloop
  endfacet
  facet normal 0 0 -1
    outer loop
      vertex 3.21584 -2.33645 0
      vertex 2.7375 -4.74149 0
      vertex 2.81075 -2.81075 0
    endloop
  endfacet
  facet normal 0 0 -1
    outer loop
      vertex 2.7375 -4.74149 0
      vertex 2.33645 -3.21584 0
      vertex 2.81075 -2.81075 0
    endloop
  endfacet
  facet normal 0 0 -1
    outer loop
      vertex 2.7375 -4.74149 0
      vertex 1.80461 -3.54175 0
      vertex 2.33645 -3.21584 0
    endloop
  endfacet
  facet normal 0 0 -1
    outer loop
      vertex 2.7375 -4.74149 0
      vertex 1.22834 -3.78045 0
      vertex 1.80461 -3.54175 0
    endloop
  endfacet
  facet normal 0 0 -1
    outer loop
      vertex 2.7375 -4.74149 0
      vertex 0.621826 -3.92606 0
      vertex 1.22834 -3.78045 0
    endloop
  endfacet
  facet normal 0 0 -1
    outer loop
      vertex 2.7375 -4.74149 0
      vertex 0 -3.975 0
      vertex 0.621826 -3.92606 0
    endloop
  endfacet
  facet normal 0 0 -1
    outer loop
      vertex -2.7375 -4.74149 0
      vertex 0 -3.975 0
      vertex 2.7375 -4.74149 0
    endloop
  endfacet
  facet normal -0 0 -1
    outer loop
      vertex 0 -3.975 0
      vertex -2.7375 -4.74149 0
      vertex -0.621826 -3.92606 0
    endloop
  endfacet
  facet normal -0 0 -1
    outer loop
      vertex -0.621826 -3.92606 0
      vertex -2.7375 -4.74149 0
      vertex -1.22834 -3.78045 0
    endloop
  endfacet
  facet normal 0 0 -1
    outer loop
      vertex -2.7375 -4.74149 0
      vertex -1.80461 -3.54175 0
      vertex -1.22834 -3.78045 0
    endloop
  endfacet
  facet normal 0 0 -1
    outer loop
      vertex -2.7375 -4.74149 0
      vertex -2.33645 -3.21584 0
      vertex -1.80461 -3.54175 0
    endloop
  endfacet
  facet normal 0 0 -1
    outer loop
      vertex -2.7375 -4.74149 0
      vertex -2.81075 -2.81075 0
      vertex -2.33645 -3.21584 0
    endloop
  endfacet
  facet normal 0 0 -1
    outer loop
      vertex -2.7375 -4.74149 0
      vertex -3.21584 -2.33645 0
      vertex -2.81075 -2.81075 0
    endloop
  endfacet
  facet normal 0 0 -1
    outer loop
      vertex -2.7375 -4.74149 0
      vertex -3.54175 -1.80461 0
      vertex -3.21584 -2.33645 0
    endloop
  endfacet
  facet normal 0 0 -1
    outer loop
      vertex -5.475 0 0
      vertex -3.54175 -1.80461 0
      vertex -2.7375 -4.74149 0
    endloop
  endfacet
  facet normal 0 0 -1
    outer loop
      vertex -3.92606 -0.621826 0
      vertex -5.475 0 0
      vertex -3.975 0 0
    endloop
  endfacet
  facet normal 0 0 -1
    outer loop
      vertex -3.78045 -1.22834 0
      vertex -5.475 0 0
      vertex -3.92606 -0.621826 0
    endloop
  endfacet
  facet normal 0 0 -1
    outer loop
      vertex -3.54175 -1.80461 0
      vertex -5.475 0 0
      vertex -3.78045 -1.22834 0
    endloop
  endfacet
  facet normal 0 0 -1
    outer loop
      vertex 3.92606 0.621826 0
      vertex 5.475 0 0
      vertex 3.975 0 0
    endloop
  endfacet
  facet normal 0 0 -1
    outer loop
      vertex 3.78045 1.22834 0
      vertex 5.475 0 0
      vertex 3.92606 0.621826 0
    endloop
  endfacet
  facet normal 0 0 -1
    outer loop
      vertex 3.54175 1.80461 0
      vertex 5.475 0 0
      vertex 3.78045 1.22834 0
    endloop
  endfacet
  facet normal 0 0 -1
    outer loop
      vertex 2.7375 4.74149 0
      vertex 3.54175 1.80461 0
      vertex 3.21584 2.33645 0
    endloop
  endfacet
  facet normal 0 0 -1
    outer loop
      vertex 2.7375 4.74149 0
      vertex 3.21584 2.33645 0
      vertex 2.81075 2.81075 0
    endloop
  endfacet
  facet normal 0 0 -1
    outer loop
      vertex 3.54175 1.80461 0
      vertex 2.7375 4.74149 0
      vertex 5.475 0 0
    endloop
  endfacet
  facet normal 0 0 -1
    outer loop
      vertex 2.33645 3.21584 0
      vertex 2.7375 4.74149 0
      vertex 2.81075 2.81075 0
    endloop
  endfacet
  facet normal 0 0 -1
    outer loop
      vertex 1.80461 3.54175 0
      vertex 2.7375 4.74149 0
      vertex 2.33645 3.21584 0
    endloop
  endfacet
  facet normal 0 0 -1
    outer loop
      vertex 1.22834 3.78045 0
      vertex 2.7375 4.74149 0
      vertex 1.80461 3.54175 0
    endloop
  endfacet
  facet normal 0 0 -1
    outer loop
      vertex 0.621826 3.92606 0
      vertex 2.7375 4.74149 0
      vertex 1.22834 3.78045 0
    endloop
  endfacet
  facet normal 0 0 -1
    outer loop
      vertex 0 3.975 0
      vertex 2.7375 4.74149 0
      vertex 0.621826 3.92606 0
    endloop
  endfacet
  facet normal 0 0 -1
    outer loop
      vertex -2.7375 4.74149 0
      vertex 0 3.975 0
      vertex -0.621826 3.92606 0
    endloop
  endfacet
  facet normal 0 0 -1
    outer loop
      vertex -2.7375 4.74149 0
      vertex -0.621826 3.92606 0
      vertex -1.22834 3.78045 0
    endloop
  endfacet
  facet normal 0 0 -1
    outer loop
      vertex 0 3.975 0
      vertex -2.7375 4.74149 0
      vertex 2.7375 4.74149 0
    endloop
  endfacet
  facet normal 0 0 -1
    outer loop
      vertex -1.80461 3.54175 0
      vertex -2.7375 4.74149 0
      vertex -1.22834 3.78045 0
    endloop
  endfacet
  facet normal 0 0 -1
    outer loop
      vertex -2.33645 3.21584 0
      vertex -2.7375 4.74149 0
      vertex -1.80461 3.54175 0
    endloop
  endfacet
  facet normal 0 0 -1
    outer loop
      vertex -2.81075 2.81075 0
      vertex -2.7375 4.74149 0
      vertex -2.33645 3.21584 0
    endloop
  endfacet
  facet normal 0 0 -1
    outer loop
      vertex -3.21584 2.33645 0
      vertex -2.7375 4.74149 0
      vertex -2.81075 2.81075 0
    endloop
  endfacet
  facet normal 0 0 -1
    outer loop
      vertex -3.54175 1.80461 0
      vertex -2.7375 4.74149 0
      vertex -3.21584 2.33645 0
    endloop
  endfacet
  facet normal 0 0 -1
    outer loop
      vertex -5.475 0 0
      vertex -3.54175 1.80461 0
      vertex -3.78045 1.22834 0
    endloop
  endfacet
  facet normal -0 0 -1
    outer loop
      vertex -3.54175 1.80461 0
      vertex -5.475 0 0
      vertex -2.7375 4.74149 0
    endloop
  endfacet
  facet normal -0 0 -1
    outer loop
      vertex -3.92606 0.621826 0
      vertex -5.475 0 0
      vertex -3.78045 1.22834 0
    endloop
  endfacet
  facet normal 0 0 -1
    outer loop
      vertex -5.475 0 0
      vertex -3.92606 0.621826 0
      vertex -3.975 0 0
    endloop
  endfacet
  facet normal 0 -1 0
    outer loop
      vertex -2.7375 -4.74149 0
      vertex 2.7375 -4.74149 4.65
      vertex -2.7375 -4.74149 4.65
    endloop
  endfacet
  facet normal 0 -1 -0
    outer loop
      vertex 2.7375 -4.74149 4.65
      vertex -2.7375 -4.74149 0
      vertex 2.7375 -4.74149 0
    endloop
  endfacet
  facet normal -0.649448 -0.760406 0
    outer loop
      vertex 2.33645 3.21584 0
      vertex 2.81075 2.81075 0.37
      vertex 2.33645 3.21584 0.37
    endloop
  endfacet
  facet normal -0.649448 -0.760406 -0
    outer loop
      vertex 2.81075 2.81075 0.37
      vertex 2.33645 3.21584 0
      vertex 2.81075 2.81075 0
    endloop
  endfacet
  facet normal -0.97237 0.233446 0
    outer loop
      vertex 3.78045 -1.22834 0
      vertex 3.92606 -0.621826 0.37
      vertex 3.92606 -0.621826 0
    endloop
  endfacet
  facet normal -0.97237 0.233446 0
    outer loop
      vertex 3.92606 -0.621826 0.37
      vertex 3.78045 -1.22834 0
      vertex 3.78045 -1.22834 0.37
    endloop
  endfacet
  facet normal 0.382682 -0.92388 0
    outer loop
      vertex -1.80461 3.54175 0
      vertex -1.22834 3.78045 0.37
      vertex -1.80461 3.54175 0.37
    endloop
  endfacet
  facet normal 0.382682 -0.92388 0
    outer loop
      vertex -1.22834 3.78045 0.37
      vertex -1.80461 3.54175 0
      vertex -1.22834 3.78045 0
    endloop
  endfacet
  facet normal 0.85264 -0.522499 0
    outer loop
      vertex -3.54175 1.80461 0.37
      vertex -3.21584 2.33645 0
      vertex -3.21584 2.33645 0.37
    endloop
  endfacet
  facet normal 0.85264 -0.522499 0
    outer loop
      vertex -3.21584 2.33645 0
      vertex -3.54175 1.80461 0.37
      vertex -3.54175 1.80461 0
    endloop
  endfacet
  facet normal -0.649448 0.760406 0
    outer loop
      vertex 2.81075 -2.81075 0
      vertex 2.33645 -3.21584 0.37
      vertex 2.81075 -2.81075 0.37
    endloop
  endfacet
  facet normal -0.649448 0.760406 0
    outer loop
      vertex 2.33645 -3.21584 0.37
      vertex 2.81075 -2.81075 0
      vertex 2.33645 -3.21584 0
    endloop
  endfacet
  facet normal -0.996917 0.078459 0
    outer loop
      vertex 3.92606 -0.621826 0
      vertex 3.975 0 0.37
      vertex 3.975 0 0
    endloop
  endfacet
  facet normal -0.996917 0.078459 0
    outer loop
      vertex 3.975 0 0.37
      vertex 3.92606 -0.621826 0
      vertex 3.92606 -0.621826 0.37
    endloop
  endfacet
  facet normal -0.97237 -0.233446 0
    outer loop
      vertex 3.92606 0.621826 0
      vertex 3.78045 1.22834 0.37
      vertex 3.78045 1.22834 0
    endloop
  endfacet
  facet normal -0.97237 -0.233446 0
    outer loop
      vertex 3.78045 1.22834 0.37
      vertex 3.92606 0.621826 0
      vertex 3.92606 0.621826 0.37
    endloop
  endfacet
  facet normal -0.92388 -0.382682 0
    outer loop
      vertex 3.78045 1.22834 0
      vertex 3.54175 1.80461 0.37
      vertex 3.54175 1.80461 0
    endloop
  endfacet
  facet normal -0.92388 -0.382682 0
    outer loop
      vertex 3.54175 1.80461 0.37
      vertex 3.78045 1.22834 0
      vertex 3.78045 1.22834 0.37
    endloop
  endfacet
  facet normal -0.85264 -0.522499 0
    outer loop
      vertex 3.54175 1.80461 0
      vertex 3.21584 2.33645 0.37
      vertex 3.21584 2.33645 0
    endloop
  endfacet
  facet normal -0.85264 -0.522499 0
    outer loop
      vertex 3.21584 2.33645 0.37
      vertex 3.54175 1.80461 0
      vertex 3.54175 1.80461 0.37
    endloop
  endfacet
  facet normal -0.760406 -0.649448 0
    outer loop
      vertex 3.21584 2.33645 0
      vertex 2.81075 2.81075 0.37
      vertex 2.81075 2.81075 0
    endloop
  endfacet
  facet normal -0.760406 -0.649448 0
    outer loop
      vertex 2.81075 2.81075 0.37
      vertex 3.21584 2.33645 0
      vertex 3.21584 2.33645 0.37
    endloop
  endfacet
  facet normal -0.522499 -0.85264 0
    outer loop
      vertex 1.80461 3.54175 0
      vertex 2.33645 3.21584 0.37
      vertex 1.80461 3.54175 0.37
    endloop
  endfacet
  facet normal -0.522499 -0.85264 -0
    outer loop
      vertex 2.33645 3.21584 0.37
      vertex 1.80461 3.54175 0
      vertex 2.33645 3.21584 0
    endloop
  endfacet
  facet normal -0.078459 -0.996917 0
    outer loop
      vertex 0 3.975 0
      vertex 0.621826 3.92606 0.37
      vertex 0 3.975 0.37
    endloop
  endfacet
  facet normal -0.078459 -0.996917 -0
    outer loop
      vertex 0.621826 3.92606 0.37
      vertex 0 3.975 0
      vertex 0.621826 3.92606 0
    endloop
  endfacet
  facet normal 0.996917 -0.078459 0
    outer loop
      vertex -3.975 0 0.37
      vertex -3.92606 0.621826 0
      vertex -3.92606 0.621826 0.37
    endloop
  endfacet
  facet normal 0.996917 -0.078459 0
    outer loop
      vertex -3.92606 0.621826 0
      vertex -3.975 0 0.37
      vertex -3.975 0 0
    endloop
  endfacet
  facet normal 0.760406 -0.649448 0
    outer loop
      vertex -3.21584 2.33645 0.37
      vertex -2.81075 2.81075 0
      vertex -2.81075 2.81075 0.37
    endloop
  endfacet
  facet normal 0.760406 -0.649448 0
    outer loop
      vertex -2.81075 2.81075 0
      vertex -3.21584 2.33645 0.37
      vertex -3.21584 2.33645 0
    endloop
  endfacet
  facet normal 0.522499 -0.85264 0
    outer loop
      vertex -2.33645 3.21584 0
      vertex -1.80461 3.54175 0.37
      vertex -2.33645 3.21584 0.37
    endloop
  endfacet
  facet normal 0.522499 -0.85264 0
    outer loop
      vertex -1.80461 3.54175 0.37
      vertex -2.33645 3.21584 0
      vertex -1.80461 3.54175 0
    endloop
  endfacet
  facet normal 0.078459 -0.996917 0
    outer loop
      vertex -0.621826 3.92606 0
      vertex 0 3.975 0.37
      vertex -0.621826 3.92606 0.37
    endloop
  endfacet
  facet normal 0.078459 -0.996917 0
    outer loop
      vertex 0 3.975 0.37
      vertex -0.621826 3.92606 0
      vertex 0 3.975 0
    endloop
  endfacet
  facet normal 0.649448 -0.760406 0
    outer loop
      vertex -2.81075 2.81075 0
      vertex -2.33645 3.21584 0.37
      vertex -2.81075 2.81075 0.37
    endloop
  endfacet
  facet normal 0.649448 -0.760406 0
    outer loop
      vertex -2.33645 3.21584 0.37
      vertex -2.81075 2.81075 0
      vertex -2.33645 3.21584 0
    endloop
  endfacet
  facet normal -0.078459 0.996917 0
    outer loop
      vertex 0.621826 -3.92606 0
      vertex 0 -3.975 0.37
      vertex 0.621826 -3.92606 0.37
    endloop
  endfacet
  facet normal -0.078459 0.996917 0
    outer loop
      vertex 0 -3.975 0.37
      vertex 0.621826 -3.92606 0
      vertex 0 -3.975 0
    endloop
  endfacet
  facet normal -0.760406 0.649448 0
    outer loop
      vertex 2.81075 -2.81075 0
      vertex 3.21584 -2.33645 0.37
      vertex 3.21584 -2.33645 0
    endloop
  endfacet
  facet normal -0.760406 0.649448 0
    outer loop
      vertex 3.21584 -2.33645 0.37
      vertex 2.81075 -2.81075 0
      vertex 2.81075 -2.81075 0.37
    endloop
  endfacet
  facet normal -0.92388 0.382682 0
    outer loop
      vertex 3.54175 -1.80461 0
      vertex 3.78045 -1.22834 0.37
      vertex 3.78045 -1.22834 0
    endloop
  endfacet
  facet normal -0.92388 0.382682 0
    outer loop
      vertex 3.78045 -1.22834 0.37
      vertex 3.54175 -1.80461 0
      vertex 3.54175 -1.80461 0.37
    endloop
  endfacet
  facet normal -0.522499 0.85264 0
    outer loop
      vertex 2.33645 -3.21584 0
      vertex 1.80461 -3.54175 0.37
      vertex 2.33645 -3.21584 0.37
    endloop
  endfacet
  facet normal -0.522499 0.85264 0
    outer loop
      vertex 1.80461 -3.54175 0.37
      vertex 2.33645 -3.21584 0
      vertex 1.80461 -3.54175 0
    endloop
  endfacet
  facet normal 0.078459 0.996917 -0
    outer loop
      vertex 0 -3.975 0
      vertex -0.621826 -3.92606 0.37
      vertex 0 -3.975 0.37
    endloop
  endfacet
  facet normal 0.078459 0.996917 0
    outer loop
      vertex -0.621826 -3.92606 0.37
      vertex 0 -3.975 0
      vertex -0.621826 -3.92606 0
    endloop
  endfacet
  facet normal 0.649448 0.760406 -0
    outer loop
      vertex -2.33645 -3.21584 0
      vertex -2.81075 -2.81075 0.37
      vertex -2.33645 -3.21584 0.37
    endloop
  endfacet
  facet normal 0.649448 0.760406 0
    outer loop
      vertex -2.81075 -2.81075 0.37
      vertex -2.33645 -3.21584 0
      vertex -2.81075 -2.81075 0
    endloop
  endfacet
  facet normal 0.85264 0.522499 0
    outer loop
      vertex -3.21584 -2.33645 0.37
      vertex -3.54175 -1.80461 0
      vertex -3.54175 -1.80461 0.37
    endloop
  endfacet
  facet normal 0.85264 0.522499 0
    outer loop
      vertex -3.54175 -1.80461 0
      vertex -3.21584 -2.33645 0.37
      vertex -3.21584 -2.33645 0
    endloop
  endfacet
  facet normal 0.996917 0.078459 0
    outer loop
      vertex -3.92606 -0.621826 0.37
      vertex -3.975 0 0
      vertex -3.975 0 0.37
    endloop
  endfacet
  facet normal 0.996917 0.078459 0
    outer loop
      vertex -3.975 0 0
      vertex -3.92606 -0.621826 0.37
      vertex -3.92606 -0.621826 0
    endloop
  endfacet
  facet normal -0.382682 -0.92388 0
    outer loop
      vertex 1.22834 3.78045 0
      vertex 1.80461 3.54175 0.37
      vertex 1.22834 3.78045 0.37
    endloop
  endfacet
  facet normal -0.382682 -0.92388 -0
    outer loop
      vertex 1.80461 3.54175 0.37
      vertex 1.22834 3.78045 0
      vertex 1.80461 3.54175 0
    endloop
  endfacet
  facet normal -0.233446 -0.97237 0
    outer loop
      vertex 0.621826 3.92606 0
      vertex 1.22834 3.78045 0.37
      vertex 0.621826 3.92606 0.37
    endloop
  endfacet
  facet normal -0.233446 -0.97237 -0
    outer loop
      vertex 1.22834 3.78045 0.37
      vertex 0.621826 3.92606 0
      vertex 1.22834 3.78045 0
    endloop
  endfacet
  facet normal 0.92388 -0.382682 0
    outer loop
      vertex -3.78045 1.22834 0.37
      vertex -3.54175 1.80461 0
      vertex -3.54175 1.80461 0.37
    endloop
  endfacet
  facet normal 0.92388 -0.382682 0
    outer loop
      vertex -3.54175 1.80461 0
      vertex -3.78045 1.22834 0.37
      vertex -3.78045 1.22834 0
    endloop
  endfacet
  facet normal 0.97237 -0.233446 0
    outer loop
      vertex -3.92606 0.621826 0.37
      vertex -3.78045 1.22834 0
      vertex -3.78045 1.22834 0.37
    endloop
  endfacet
  facet normal 0.97237 -0.233446 0
    outer loop
      vertex -3.78045 1.22834 0
      vertex -3.92606 0.621826 0.37
      vertex -3.92606 0.621826 0
    endloop
  endfacet
  facet normal 0.233446 -0.97237 0
    outer loop
      vertex -1.22834 3.78045 0
      vertex -0.621826 3.92606 0.37
      vertex -1.22834 3.78045 0.37
    endloop
  endfacet
  facet normal 0.233446 -0.97237 0
    outer loop
      vertex -0.621826 3.92606 0.37
      vertex -1.22834 3.78045 0
      vertex -0.621826 3.92606 0
    endloop
  endfacet
  facet normal -0.996917 -0.078459 0
    outer loop
      vertex 3.975 0 0
      vertex 3.92606 0.621826 0.37
      vertex 3.92606 0.621826 0
    endloop
  endfacet
  facet normal -0.996917 -0.078459 0
    outer loop
      vertex 3.92606 0.621826 0.37
      vertex 3.975 0 0
      vertex 3.975 0 0.37
    endloop
  endfacet
  facet normal -0.233446 0.97237 0
    outer loop
      vertex 1.22834 -3.78045 0
      vertex 0.621826 -3.92606 0.37
      vertex 1.22834 -3.78045 0.37
    endloop
  endfacet
  facet normal -0.233446 0.97237 0
    outer loop
      vertex 0.621826 -3.92606 0.37
      vertex 1.22834 -3.78045 0
      vertex 0.621826 -3.92606 0
    endloop
  endfacet
  facet normal 0.382682 0.92388 -0
    outer loop
      vertex -1.22834 -3.78045 0
      vertex -1.80461 -3.54175 0.37
      vertex -1.22834 -3.78045 0.37
    endloop
  endfacet
  facet normal 0.382682 0.92388 0
    outer loop
      vertex -1.80461 -3.54175 0.37
      vertex -1.22834 -3.78045 0
      vertex -1.80461 -3.54175 0
    endloop
  endfacet
  facet normal 0.522499 0.85264 -0
    outer loop
      vertex -1.80461 -3.54175 0
      vertex -2.33645 -3.21584 0.37
      vertex -1.80461 -3.54175 0.37
    endloop
  endfacet
  facet normal 0.522499 0.85264 0
    outer loop
      vertex -2.33645 -3.21584 0.37
      vertex -1.80461 -3.54175 0
      vertex -2.33645 -3.21584 0
    endloop
  endfacet
  facet normal 0.97237 0.233446 0
    outer loop
      vertex -3.78045 -1.22834 0.37
      vertex -3.92606 -0.621826 0
      vertex -3.92606 -0.621826 0.37
    endloop
  endfacet
  facet normal 0.97237 0.233446 0
    outer loop
      vertex -3.92606 -0.621826 0
      vertex -3.78045 -1.22834 0.37
      vertex -3.78045 -1.22834 0
    endloop
  endfacet
  facet normal 0.760406 0.649448 0
    outer loop
      vertex -2.81075 -2.81075 0.37
      vertex -3.21584 -2.33645 0
      vertex -3.21584 -2.33645 0.37
    endloop
  endfacet
  facet normal 0.760406 0.649448 0
    outer loop
      vertex -3.21584 -2.33645 0
      vertex -2.81075 -2.81075 0.37
      vertex -2.81075 -2.81075 0
    endloop
  endfacet
  facet normal -0.85264 0.522499 0
    outer loop
      vertex 3.21584 -2.33645 0
      vertex 3.54175 -1.80461 0.37
      vertex 3.54175 -1.80461 0
    endloop
  endfacet
  facet normal -0.85264 0.522499 0
    outer loop
      vertex 3.54175 -1.80461 0.37
      vertex 3.21584 -2.33645 0
      vertex 3.21584 -2.33645 0.37
    endloop
  endfacet
  facet normal -0.382682 0.92388 0
    outer loop
      vertex 1.80461 -3.54175 0
      vertex 1.22834 -3.78045 0.37
      vertex 1.80461 -3.54175 0.37
    endloop
  endfacet
  facet normal -0.382682 0.92388 0
    outer loop
      vertex 1.22834 -3.78045 0.37
      vertex 1.80461 -3.54175 0
      vertex 1.22834 -3.78045 0
    endloop
  endfacet
  facet normal 0.233446 0.97237 -0
    outer loop
      vertex -0.621826 -3.92606 0
      vertex -1.22834 -3.78045 0.37
      vertex -0.621826 -3.92606 0.37
    endloop
  endfacet
  facet normal 0.233446 0.97237 0
    outer loop
      vertex -1.22834 -3.78045 0.37
      vertex -0.621826 -3.92606 0
      vertex -1.22834 -3.78045 0
    endloop
  endfacet
  facet normal 0.92388 0.382682 0
    outer loop
      vertex -3.54175 -1.80461 0.37
      vertex -3.78045 -1.22834 0
      vertex -3.78045 -1.22834 0.37
    endloop
  endfacet
  facet normal 0.92388 0.382682 0
    outer loop
      vertex -3.78045 -1.22834 0
      vertex -3.54175 -1.80461 0.37
      vertex -3.54175 -1.80461 0
    endloop
  endfacet
  facet normal -0.982045 -0.0772886 -0.172087
    outer loop
      vertex 3.92606 0.621826 0.37
      vertex 3.975 0 0.37
      vertex 3.225 0 4.65
    endloop
  endfacet
  facet normal 0.982045 0.0772886 -0.172087
    outer loop
      vertex -3.225 0 4.65
      vertex -3.92606 -0.621826 0.37
      vertex -3.975 0 0.37
    endloop
  endfacet
  facet normal -0.376975 -0.910097 -0.172088
    outer loop
      vertex 1.80461 3.54175 0.37
      vertex 1.46412 2.8735 4.65
      vertex 0.996579 3.06716 4.65
    endloop
  endfacet
  facet normal 0.0772886 0.982045 -0.172087
    outer loop
      vertex 0 -3.225 4.65
      vertex 0 -3.975 0.37
      vertex -0.621826 -3.92606 0.37
    endloop
  endfacet
  facet normal -0.982045 0.0772891 -0.172087
    outer loop
      vertex 3.225 0 4.65
      vertex 3.92606 -0.621826 0.37
      vertex 3.18529 -0.5045 4.65
    endloop
  endfacet
  facet normal 0.639758 -0.749063 -0.172087
    outer loop
      vertex -1.89561 2.60908 4.65
      vertex -2.28042 2.28042 4.65
      vertex -2.33645 3.21584 0.37
    endloop
  endfacet
  facet normal -0.376975 0.910097 -0.172088
    outer loop
      vertex 1.46412 -2.8735 4.65
      vertex 1.80461 -3.54175 0.37
      vertex 0.996579 -3.06716 4.65
    endloop
  endfacet
  facet normal -0.83992 -0.514704 -0.172087
    outer loop
      vertex 3.21584 2.33645 0.37
      vertex 3.54175 1.80461 0.37
      vertex 2.60908 1.89561 4.65
    endloop
  endfacet
  facet normal -0.957864 -0.229963 -0.172087
    outer loop
      vertex 3.78045 1.22834 0.37
      vertex 3.92606 0.621826 0.37
      vertex 3.06716 0.996579 4.65
    endloop
  endfacet
  facet normal -0.982045 0.0772886 -0.172087
    outer loop
      vertex 3.975 0 0.37
      vertex 3.92606 -0.621826 0.37
      vertex 3.225 0 4.65
    endloop
  endfacet
  facet normal 0.749062 -0.639759 -0.172087
    outer loop
      vertex -2.81075 2.81075 0.37
      vertex -2.28042 2.28042 4.65
      vertex -3.21584 2.33645 0.37
    endloop
  endfacet
  facet normal 0.639759 -0.749062 -0.172087
    outer loop
      vertex -2.33645 3.21584 0.37
      vertex -2.28042 2.28042 4.65
      vertex -2.81075 2.81075 0.37
    endloop
  endfacet
  facet normal 0.514704 -0.83992 -0.172087
    outer loop
      vertex -1.80461 3.54175 0.37
      vertex -1.89561 2.60908 4.65
      vertex -2.33645 3.21584 0.37
    endloop
  endfacet
  facet normal 0.376973 -0.910097 -0.172087
    outer loop
      vertex -1.22834 3.78045 0.37
      vertex -0.996579 3.06716 4.65
      vertex -1.80461 3.54175 0.37
    endloop
  endfacet
  facet normal 0.982045 -0.0772886 -0.172087
    outer loop
      vertex -3.92606 0.621826 0.37
      vertex -3.225 0 4.65
      vertex -3.975 0 0.37
    endloop
  endfacet
  facet normal 0.910097 -0.376973 -0.172087
    outer loop
      vertex -3.54175 1.80461 0.37
      vertex -3.06716 0.996579 4.65
      vertex -3.78045 1.22834 0.37
    endloop
  endfacet
  facet normal 0.749062 0.639759 -0.172087
    outer loop
      vertex -2.28042 -2.28042 4.65
      vertex -2.81075 -2.81075 0.37
      vertex -3.21584 -2.33645 0.37
    endloop
  endfacet
  facet normal 0.839921 -0.514703 -0.172088
    outer loop
      vertex -2.60908 1.89561 4.65
      vertex -2.8735 1.46412 4.65
      vertex -3.54175 1.80461 0.37
    endloop
  endfacet
  facet normal 0.376975 0.910097 -0.172088
    outer loop
      vertex -1.46412 -2.8735 4.65
      vertex -0.996579 -3.06716 4.65
      vertex -1.80461 -3.54175 0.37
    endloop
  endfacet
  facet normal -0.639759 0.749062 -0.172087
    outer loop
      vertex 2.81075 -2.81075 0.37
      vertex 2.33645 -3.21584 0.37
      vertex 2.28042 -2.28042 4.65
    endloop
  endfacet
  facet normal -0.0772891 -0.982045 -0.172087
    outer loop
      vertex 0.621826 3.92606 0.37
      vertex 0.5045 3.18529 4.65
      vertex 0 3.225 4.65
    endloop
  endfacet
  facet normal -0.749063 -0.639758 -0.172087
    outer loop
      vertex 3.21584 2.33645 0.37
      vertex 2.60908 1.89561 4.65
      vertex 2.28042 2.28042 4.65
    endloop
  endfacet
  facet normal -0.514704 -0.83992 -0.172087
    outer loop
      vertex 2.33645 3.21584 0.37
      vertex 1.89561 2.60908 4.65
      vertex 1.80461 3.54175 0.37
    endloop
  endfacet
  facet normal -0.749062 -0.639759 -0.172087
    outer loop
      vertex 2.81075 2.81075 0.37
      vertex 3.21584 2.33645 0.37
      vertex 2.28042 2.28042 4.65
    endloop
  endfacet
  facet normal -0.910097 -0.376973 -0.172087
    outer loop
      vertex 3.54175 1.80461 0.37
      vertex 3.78045 1.22834 0.37
      vertex 3.06716 0.996579 4.65
    endloop
  endfacet
  facet normal -0.839921 0.514703 -0.172088
    outer loop
      vertex 2.8735 -1.46412 4.65
      vertex 3.54175 -1.80461 0.37
      vertex 2.60908 -1.89561 4.65
    endloop
  endfacet
  facet normal 0.514703 -0.839921 -0.172088
    outer loop
      vertex -1.80461 3.54175 0.37
      vertex -1.46412 2.8735 4.65
      vertex -1.89561 2.60908 4.65
    endloop
  endfacet
  facet normal -0.0772886 -0.982045 -0.172087
    outer loop
      vertex 0 3.975 0.37
      vertex 0.621826 3.92606 0.37
      vertex 0 3.225 4.65
    endloop
  endfacet
  facet normal 0.0772886 -0.982045 -0.172087
    outer loop
      vertex 0 3.975 0.37
      vertex 0 3.225 4.65
      vertex -0.621826 3.92606 0.37
    endloop
  endfacet
  facet normal 0.982045 0.0772891 -0.172087
    outer loop
      vertex -3.225 0 4.65
      vertex -3.18529 -0.5045 4.65
      vertex -3.92606 -0.621826 0.37
    endloop
  endfacet
  facet normal 0.957864 0.229963 -0.172087
    outer loop
      vertex -3.06716 -0.996579 4.65
      vertex -3.78045 -1.22834 0.37
      vertex -3.92606 -0.621826 0.37
    endloop
  endfacet
  facet normal 0.749063 0.639758 -0.172087
    outer loop
      vertex -2.60908 -1.89561 4.65
      vertex -2.28042 -2.28042 4.65
      vertex -3.21584 -2.33645 0.37
    endloop
  endfacet
  facet normal 0.957864 -0.229963 -0.172087
    outer loop
      vertex -3.78045 1.22834 0.37
      vertex -3.06716 0.996579 4.65
      vertex -3.92606 0.621826 0.37
    endloop
  endfacet
  facet normal 0.749063 -0.639758 -0.172087
    outer loop
      vertex -2.28042 2.28042 4.65
      vertex -2.60908 1.89561 4.65
      vertex -3.21584 2.33645 0.37
    endloop
  endfacet
  facet normal 0.83992 -0.514704 -0.172087
    outer loop
      vertex -3.21584 2.33645 0.37
      vertex -2.60908 1.89561 4.65
      vertex -3.54175 1.80461 0.37
    endloop
  endfacet
  facet normal 0.639759 0.749062 -0.172087
    outer loop
      vertex -2.28042 -2.28042 4.65
      vertex -2.33645 -3.21584 0.37
      vertex -2.81075 -2.81075 0.37
    endloop
  endfacet
  facet normal -0.229963 0.957864 -0.172087
    outer loop
      vertex 0.996579 -3.06716 4.65
      vertex 1.22834 -3.78045 0.37
      vertex 0.621826 -3.92606 0.37
    endloop
  endfacet
  facet normal -0.83992 0.514704 -0.172087
    outer loop
      vertex 3.54175 -1.80461 0.37
      vertex 3.21584 -2.33645 0.37
      vertex 2.60908 -1.89561 4.65
    endloop
  endfacet
  facet normal -0.229963 -0.957864 -0.172087
    outer loop
      vertex 1.22834 3.78045 0.37
      vertex 0.996579 3.06716 4.65
      vertex 0.621826 3.92606 0.37
    endloop
  endfacet
  facet normal -0.376973 -0.910097 -0.172087
    outer loop
      vertex 1.22834 3.78045 0.37
      vertex 1.80461 3.54175 0.37
      vertex 0.996579 3.06716 4.65
    endloop
  endfacet
  facet normal -0.514703 -0.839921 -0.172088
    outer loop
      vertex 1.80461 3.54175 0.37
      vertex 1.89561 2.60908 4.65
      vertex 1.46412 2.8735 4.65
    endloop
  endfacet
  facet normal -0.639758 -0.749063 -0.172087
    outer loop
      vertex 2.33645 3.21584 0.37
      vertex 2.28042 2.28042 4.65
      vertex 1.89561 2.60908 4.65
    endloop
  endfacet
  facet normal -0.639759 -0.749062 -0.172087
    outer loop
      vertex 2.33645 3.21584 0.37
      vertex 2.81075 2.81075 0.37
      vertex 2.28042 2.28042 4.65
    endloop
  endfacet
  facet normal -0.982045 -0.0772891 -0.172087
    outer loop
      vertex 3.92606 0.621826 0.37
      vertex 3.225 0 4.65
      vertex 3.18529 0.5045 4.65
    endloop
  endfacet
  facet normal -0.957864 -0.229962 -0.172087
    outer loop
      vertex 3.92606 0.621826 0.37
      vertex 3.18529 0.5045 4.65
      vertex 3.06716 0.996579 4.65
    endloop
  endfacet
  facet normal -0.910097 -0.376975 -0.172088
    outer loop
      vertex 3.54175 1.80461 0.37
      vertex 3.06716 0.996579 4.65
      vertex 2.8735 1.46412 4.65
    endloop
  endfacet
  facet normal -0.839921 -0.514703 -0.172088
    outer loop
      vertex 3.54175 1.80461 0.37
      vertex 2.8735 1.46412 4.65
      vertex 2.60908 1.89561 4.65
    endloop
  endfacet
  facet normal -0.910097 0.376973 -0.172087
    outer loop
      vertex 3.78045 -1.22834 0.37
      vertex 3.54175 -1.80461 0.37
      vertex 3.06716 -0.996579 4.65
    endloop
  endfacet
  facet normal -0.957864 0.229963 -0.172087
    outer loop
      vertex 3.92606 -0.621826 0.37
      vertex 3.78045 -1.22834 0.37
      vertex 3.06716 -0.996579 4.65
    endloop
  endfacet
  facet normal 0.376975 -0.910097 -0.172088
    outer loop
      vertex -0.996579 3.06716 4.65
      vertex -1.46412 2.8735 4.65
      vertex -1.80461 3.54175 0.37
    endloop
  endfacet
  facet normal -0.229962 -0.957864 -0.172087
    outer loop
      vertex 0.621826 3.92606 0.37
      vertex 0.996579 3.06716 4.65
      vertex 0.5045 3.18529 4.65
    endloop
  endfacet
  facet normal 0.229963 -0.957864 -0.172087
    outer loop
      vertex -0.621826 3.92606 0.37
      vertex -0.996579 3.06716 4.65
      vertex -1.22834 3.78045 0.37
    endloop
  endfacet
  facet normal 0.0772891 -0.982045 -0.172087
    outer loop
      vertex 0 3.225 4.65
      vertex -0.5045 3.18529 4.65
      vertex -0.621826 3.92606 0.37
    endloop
  endfacet
  facet normal 0.229962 -0.957864 -0.172087
    outer loop
      vertex -0.621826 3.92606 0.37
      vertex -0.5045 3.18529 4.65
      vertex -0.996579 3.06716 4.65
    endloop
  endfacet
  facet normal 0.957864 0.229962 -0.172087
    outer loop
      vertex -3.18529 -0.5045 4.65
      vertex -3.06716 -0.996579 4.65
      vertex -3.92606 -0.621826 0.37
    endloop
  endfacet
  facet normal 0.910097 -0.376975 -0.172088
    outer loop
      vertex -2.8735 1.46412 4.65
      vertex -3.06716 0.996579 4.65
      vertex -3.54175 1.80461 0.37
    endloop
  endfacet
  facet normal 0.639758 0.749063 -0.172087
    outer loop
      vertex -2.28042 -2.28042 4.65
      vertex -1.89561 -2.60908 4.65
      vertex -2.33645 -3.21584 0.37
    endloop
  endfacet
  facet normal 0.514704 0.83992 -0.172087
    outer loop
      vertex -1.89561 -2.60908 4.65
      vertex -1.80461 -3.54175 0.37
      vertex -2.33645 -3.21584 0.37
    endloop
  endfacet
  facet normal 0.229962 0.957864 -0.172087
    outer loop
      vertex -0.5045 -3.18529 4.65
      vertex -0.621826 -3.92606 0.37
      vertex -0.996579 -3.06716 4.65
    endloop
  endfacet
  facet normal -0.0772886 0.982045 -0.172087
    outer loop
      vertex 0 -3.225 4.65
      vertex 0.621826 -3.92606 0.37
      vertex 0 -3.975 0.37
    endloop
  endfacet
  facet normal -0.376973 0.910097 -0.172087
    outer loop
      vertex 1.80461 -3.54175 0.37
      vertex 1.22834 -3.78045 0.37
      vertex 0.996579 -3.06716 4.65
    endloop
  endfacet
  facet normal -0.514703 0.839921 -0.172088
    outer loop
      vertex 1.89561 -2.60908 4.65
      vertex 1.80461 -3.54175 0.37
      vertex 1.46412 -2.8735 4.65
    endloop
  endfacet
  facet normal -0.639758 0.749063 -0.172087
    outer loop
      vertex 2.28042 -2.28042 4.65
      vertex 2.33645 -3.21584 0.37
      vertex 1.89561 -2.60908 4.65
    endloop
  endfacet
  facet normal -0.514704 0.83992 -0.172087
    outer loop
      vertex 1.89561 -2.60908 4.65
      vertex 2.33645 -3.21584 0.37
      vertex 1.80461 -3.54175 0.37
    endloop
  endfacet
  facet normal -0.749062 0.639759 -0.172087
    outer loop
      vertex 3.21584 -2.33645 0.37
      vertex 2.81075 -2.81075 0.37
      vertex 2.28042 -2.28042 4.65
    endloop
  endfacet
  facet normal -0.749063 0.639758 -0.172087
    outer loop
      vertex 2.60908 -1.89561 4.65
      vertex 3.21584 -2.33645 0.37
      vertex 2.28042 -2.28042 4.65
    endloop
  endfacet
  facet normal -0.957864 0.229962 -0.172087
    outer loop
      vertex 3.18529 -0.5045 4.65
      vertex 3.92606 -0.621826 0.37
      vertex 3.06716 -0.996579 4.65
    endloop
  endfacet
  facet normal -0.910097 0.376975 -0.172088
    outer loop
      vertex 3.06716 -0.996579 4.65
      vertex 3.54175 -1.80461 0.37
      vertex 2.8735 -1.46412 4.65
    endloop
  endfacet
  facet normal 0.83992 0.514704 -0.172087
    outer loop
      vertex -2.60908 -1.89561 4.65
      vertex -3.21584 -2.33645 0.37
      vertex -3.54175 -1.80461 0.37
    endloop
  endfacet
  facet normal 0.910097 0.376975 -0.172088
    outer loop
      vertex -3.06716 -0.996579 4.65
      vertex -2.8735 -1.46412 4.65
      vertex -3.54175 -1.80461 0.37
    endloop
  endfacet
  facet normal 0.957864 -0.229962 -0.172087
    outer loop
      vertex -3.06716 0.996579 4.65
      vertex -3.18529 0.5045 4.65
      vertex -3.92606 0.621826 0.37
    endloop
  endfacet
  facet normal 0.982045 -0.0772891 -0.172087
    outer loop
      vertex -3.18529 0.5045 4.65
      vertex -3.225 0 4.65
      vertex -3.92606 0.621826 0.37
    endloop
  endfacet
  facet normal 0.514703 0.839921 -0.172088
    outer loop
      vertex -1.46412 -2.8735 4.65
      vertex -1.80461 -3.54175 0.37
      vertex -1.89561 -2.60908 4.65
    endloop
  endfacet
  facet normal 0.229963 0.957864 -0.172087
    outer loop
      vertex -0.996579 -3.06716 4.65
      vertex -0.621826 -3.92606 0.37
      vertex -1.22834 -3.78045 0.37
    endloop
  endfacet
  facet normal 0.376973 0.910097 -0.172087
    outer loop
      vertex -0.996579 -3.06716 4.65
      vertex -1.22834 -3.78045 0.37
      vertex -1.80461 -3.54175 0.37
    endloop
  endfacet
  facet normal 0.0772891 0.982045 -0.172087
    outer loop
      vertex -0.5045 -3.18529 4.65
      vertex 0 -3.225 4.65
      vertex -0.621826 -3.92606 0.37
    endloop
  endfacet
  facet normal -0.0772891 0.982045 -0.172087
    outer loop
      vertex 0.5045 -3.18529 4.65
      vertex 0.621826 -3.92606 0.37
      vertex 0 -3.225 4.65
    endloop
  endfacet
  facet normal -0.229962 0.957864 -0.172087
    outer loop
      vertex 0.996579 -3.06716 4.65
      vertex 0.621826 -3.92606 0.37
      vertex 0.5045 -3.18529 4.65
    endloop
  endfacet
  facet normal 0.910097 0.376973 -0.172087
    outer loop
      vertex -3.06716 -0.996579 4.65
      vertex -3.54175 -1.80461 0.37
      vertex -3.78045 -1.22834 0.37
    endloop
  endfacet
  facet normal 0.839921 0.514703 -0.172088
    outer loop
      vertex -2.8735 -1.46412 4.65
      vertex -2.60908 -1.89561 4.65
      vertex -3.54175 -1.80461 0.37
    endloop
  endfacet
  facet normal 0.652318 0.376616 0.657754
    outer loop
      vertex 2.7375 4.74149 4.65
      vertex 2.45 0 7.65
      vertex 5.475 0 4.65
    endloop
  endfacet
  facet normal -0.652318 -0.376616 0.657754
    outer loop
      vertex -2.45 0 7.65
      vertex -5.475 0 4.65
      vertex -2.7375 -4.74149 4.65
    endloop
  endfacet
  facet normal 0 0.753232 0.657754
    outer loop
      vertex 2.7375 4.74149 4.65
      vertex -1.225 2.12176 7.65
      vertex 1.225 2.12176 7.65
    endloop
  endfacet
  facet normal 0 0.753232 0.657754
    outer loop
      vertex -1.225 2.12176 7.65
      vertex 2.7375 4.74149 4.65
      vertex -2.7375 4.74149 4.65
    endloop
  endfacet
  facet normal 0.652318 0.376616 0.657754
    outer loop
      vertex 2.7375 4.74149 4.65
      vertex 1.225 2.12176 7.65
      vertex 2.45 0 7.65
    endloop
  endfacet
  facet normal -0.652318 -0.376616 0.657754
    outer loop
      vertex -2.45 0 7.65
      vertex -2.7375 -4.74149 4.65
      vertex -1.225 -2.12176 7.65
    endloop
  endfacet
  facet normal 0 -0.753232 0.657754
    outer loop
      vertex -2.7375 -4.74149 4.65
      vertex 1.225 -2.12176 7.65
      vertex -1.225 -2.12176 7.65
    endloop
  endfacet
  facet normal 0 -0.753232 0.657754
    outer loop
      vertex 1.225 -2.12176 7.65
      vertex -2.7375 -4.74149 4.65
      vertex 2.7375 -4.74149 4.65
    endloop
  endfacet
  facet normal 0.652318 -0.376616 0.657754
    outer loop
      vertex 5.475 0 4.65
      vertex 2.45 0 7.65
      vertex 2.7375 -4.74149 4.65
    endloop
  endfacet
  facet normal -0.652318 0.376616 0.657754
    outer loop
      vertex -1.225 2.12176 7.65
      vertex -2.7375 4.74149 4.65
      vertex -2.45 0 7.65
    endloop
  endfacet
  facet normal -0.652318 0.376616 0.657754
    outer loop
      vertex -2.7375 4.74149 4.65
      vertex -5.475 0 4.65
      vertex -2.45 0 7.65
    endloop
  endfacet
  facet normal 0.652318 -0.376616 0.657754
    outer loop
      vertex 2.45 0 7.65
      vertex 1.225 -2.12176 7.65
      vertex 2.7375 -4.74149 4.65
    endloop
  endfacet
  facet normal 0.866025 0.5 0
    outer loop
      vertex 2.45 0 11.65
      vertex 1.225 2.12176 7.65
      vertex 1.225 2.12176 11.65
    endloop
  endfacet
  facet normal 0.866025 0.5 0
    outer loop
      vertex 1.225 2.12176 7.65
      vertex 2.45 0 11.65
      vertex 2.45 0 7.65
    endloop
  endfacet
  facet normal -0.866025 0.5 0
    outer loop
      vertex -2.45 0 7.65
      vertex -1.225 2.12176 11.65
      vertex -1.225 2.12176 7.65
    endloop
  endfacet
  facet normal -0.866025 0.5 0
    outer loop
      vertex -1.225 2.12176 11.65
      vertex -2.45 0 7.65
      vertex -2.45 0 11.65
    endloop
  endfacet
  facet normal 0 1 -0
    outer loop
      vertex 1.225 2.12176 7.65
      vertex -1.225 2.12176 11.65
      vertex 1.225 2.12176 11.65
    endloop
  endfacet
  facet normal 0 1 0
    outer loop
      vertex -1.225 2.12176 11.65
      vertex 1.225 2.12176 7.65
      vertex -1.225 2.12176 7.65
    endloop
  endfacet
  facet normal -0.866025 -0.5 0
    outer loop
      vertex -1.225 -2.12176 7.65
      vertex -2.45 0 11.65
      vertex -2.45 0 7.65
    endloop
  endfacet
  facet normal -0.866025 -0.5 0
    outer loop
      vertex -2.45 0 11.65
      vertex -1.225 -2.12176 7.65
      vertex -1.225 -2.12176 11.65
    endloop
  endfacet
  facet normal 0 0 1
    outer loop
      vertex 1.225 2.12176 11.65
      vertex 1.225 -2.12176 11.65
      vertex 2.45 0 11.65
    endloop
  endfacet
  facet normal -0 0 1
    outer loop
      vertex -1.225 2.12176 11.65
      vertex 1.225 -2.12176 11.65
      vertex 1.225 2.12176 11.65
    endloop
  endfacet
  facet normal 0 0 1
    outer loop
      vertex -1.225 2.12176 11.65
      vertex -1.225 -2.12176 11.65
      vertex 1.225 -2.12176 11.65
    endloop
  endfacet
  facet normal 0 -0 1
    outer loop
      vertex -1.225 -2.12176 11.65
      vertex -1.225 2.12176 11.65
      vertex -2.45 0 11.65
    endloop
  endfacet
  facet normal 0.866025 -0.5 0
    outer loop
      vertex 1.225 -2.12176 11.65
      vertex 2.45 0 7.65
      vertex 2.45 0 11.65
    endloop
  endfacet
  facet normal 0.866025 -0.5 0
    outer loop
      vertex 2.45 0 7.65
      vertex 1.225 -2.12176 11.65
      vertex 1.225 -2.12176 7.65
    endloop
  endfacet
  facet normal 0 -1 0
    outer loop
      vertex -1.225 -2.12176 7.65
      vertex 1.225 -2.12176 11.65
      vertex -1.225 -2.12176 11.65
    endloop
  endfacet
  facet normal 0 -1 -0
    outer loop
      vertex 1.225 -2.12176 11.65
      vertex -1.225 -2.12176 7.65
      vertex 1.225 -2.12176 7.65
    endloop
  endfacet
endsolid OpenSCAD_Model
